<svg id="Capa_1" data-name="Capa 1" xmlns="http://www.w3.org/2000/svg" viewBox="0 0 72.99 69.44"><defs><style>.cls-1{fill:#fff;}</style></defs><path class="cls-1" d="M543.17,531.32h4.58v22.77h4.77v3.35H537.68v-3.35h4.79V536l-4.79,3.78-.88-4Zm-6.65,8.89a1.11,1.11,0,0,0,1.77.63l2.94-2.32v14.33h-3.68a1.11,1.11,0,0,0-1.11,1.11v3.6a1.15,1.15,0,0,0,.32.79,1.13,1.13,0,0,0,.79.33h15.1a1.13,1.13,0,0,0,1.11-1.12V554a1.11,1.11,0,0,0-1.11-1.11H549V531.19a1.11,1.11,0,0,0-1.11-1.11h-4.75a1.1,1.1,0,0,0-.63.2L536,534.76a1.12,1.12,0,0,0-.46,1.15Z" transform="translate(-507.01 -516.18)"/><path class="cls-1" d="M525.52,558.67l1.08-.14a1.27,1.27,0,0,1,.27.25,1.31,1.31,0,0,1,.28,1l-.66,4.89a2.7,2.7,0,0,0,.55,2.16,2,2,0,0,0,1.29.68,2.65,2.65,0,0,0,2.3,0l4.54-1.93a1.39,1.39,0,0,1,.52-.11,1.26,1.26,0,0,1,.55.67l.06.15-16.51,14.89-.25-7.42a1.07,1.07,0,0,0-1-1l-7.93-.64Zm13.41,6.94a3.37,3.37,0,0,0-1.87-2,3.64,3.64,0,0,0-.91-.26,3.41,3.41,0,0,0-.55-.14h0a3.92,3.92,0,0,0-.59-.05,3.23,3.23,0,0,0-.69.07h0a4.2,4.2,0,0,0-.66.21h0l-4.36,1.85a.45.45,0,0,0,0-.12l.66-4.89h0a3.41,3.41,0,0,0-3-3.86h0l-.37-.11a3.1,3.1,0,0,0-.53-.1l-1.66-.14-3.26-.26c-.33,0-.46-.12-.47-.14a.08.08,0,0,1,0,0,.88.88,0,0,1,.19-.41l2.85-4a3.1,3.1,0,0,0,.35-.61,3.4,3.4,0,0,0-1.31-4.27l-4.17-2.64a1.25,1.25,0,0,1-.28-.23h0a.31.31,0,0,1-.07-.12s.08-.17.38-.32l2.26-1.15,2.13-1.08a3.41,3.41,0,0,0,1.48-4.67l-.06-.11L522,531.7a1.13,1.13,0,0,1-.16-.43v0l0,0a1.06,1.06,0,0,1,.44-.07l1.27,0,3.71,0a3.39,3.39,0,0,0,2.48-1,3.35,3.35,0,0,0,.73-1.15s0-.09,0-.13a3.42,3.42,0,0,0,.18-1.24l-.2-4.93c0-.33.07-.47.13-.49a1,1,0,0,1,.44.14l3.56,1.93.78.41.16.08a3.49,3.49,0,0,0,1.48.35,3.37,3.37,0,0,0,2.33-.94,3.29,3.29,0,0,0,.76-1l2.12-4.46a1.17,1.17,0,0,1,.12-.2.8.8,0,0,1,.15-.18h0l.08,0,.06,0a.94.94,0,0,1,.22.25l1.87,2.78.89,1.32a3.49,3.49,0,0,0,.77.81,3.41,3.41,0,0,0,2.07.71,3.64,3.64,0,0,0,2.07-.69l1.61-1.21,2.33-1.75a.92.92,0,0,1,.42-.21h0s.13.14.16.47l.54,4.9a3.46,3.46,0,0,0,.82,1.89,3.85,3.85,0,0,0,.56.51,3.39,3.39,0,0,0,2.58.62l4.87-.79a1.05,1.05,0,0,1,.49,0s0,0,0,0a1,1,0,0,1-.08.46l-1.81,4.59a3.38,3.38,0,0,0-.11.34h0s0,.05,0,.07a3.44,3.44,0,0,0,.05,1.91c0,.13.1.26.16.39a2.56,2.56,0,0,0,.27.45,3.42,3.42,0,0,0,1.76,1.36l3.49,1.16,1.19.4a1.12,1.12,0,0,1,.38.2l0,0a.51.51,0,0,1-.12.21,1.12,1.12,0,0,1-.19.19l-2.34,2-1.39,1.2a3.41,3.41,0,0,0-.23,5l3.42,3.56a.82.82,0,0,1,.26.42h0l0,0h0a.92.92,0,0,1-.42.18l-4.81,1.12a3.42,3.42,0,0,0-2.19,1.61,4,4,0,0,0-.26.56v0a2.94,2.94,0,0,0-.16.6h0a2.32,2.32,0,0,0-.44,2l1.37,4.74h0l-4.7-1.22a3.83,3.83,0,0,0-.59-.1h-.3a3.15,3.15,0,0,0-.53,0l-.11,0a3.17,3.17,0,0,0-.44.12l-.18.06-.27.13a2.79,2.79,0,0,0-.33.19l-.11.08a2.88,2.88,0,0,0-.46.39h0a3.39,3.39,0,0,0-1.43,2.15l-.86,4.16a1.11,1.11,0,0,0,.08.65h0l-.12-.07h0a1.77,1.77,0,0,1-.17-.14L548.65,566a3.13,3.13,0,0,0-.91-.58,3.23,3.23,0,0,0-1.4-.32,3.41,3.41,0,0,0-1.67.44,4.2,4.2,0,0,0-.49.33,3.38,3.38,0,0,0-.5.5l-3.12,3.82-.12.13a.91.91,0,0,1-.13.1h0a.62.62,0,0,1-.12.06l0,0h0a.92.92,0,0,1-.23-.4l-1.14-3.11m25.66-2.13a2,2,0,0,0,.19-.22,2.06,2.06,0,0,0,.48-.45,2.6,2.6,0,0,0,.31-2.34l-.44-1.53,11.75,13-8.16.75a1.07,1.07,0,0,0-1,.94l-.83,7.09-11.7-13,.91-4.45a1.57,1.57,0,0,1,.18-.44,1.35,1.35,0,0,1,1-.11l4.77,1.24h0a2.51,2.51,0,0,0,2.54-.55m-57.36,8.48a1.08,1.08,0,0,0,.93.73l9.44.76.3,8.77a1,1,0,0,0,.65,1,1,1,0,0,0,.42.08,1.07,1.07,0,0,0,.71-.27l17.58-15.85.84,2.31a2.44,2.44,0,0,0,2.23,1.8,2.63,2.63,0,0,0,2-1.08l3.12-3.82a1.34,1.34,0,0,1,1-.5,1.31,1.31,0,0,1,.9.36l3.65,3.31a2.77,2.77,0,0,0,1.84.8,2.14,2.14,0,0,0,1.31-.46l12.71,14.09a1.09,1.09,0,0,0,.8.36,1.26,1.26,0,0,0,.33,0,1.09,1.09,0,0,0,.73-.9l1-8.58,9.41-.87a1.07,1.07,0,0,0,.7-1.78L564.1,556.12a1.17,1.17,0,0,1,0-.11,1.33,1.33,0,0,1,.86-.63l4.8-1.12a2.34,2.34,0,0,0,1.23-4.13l-3.42-3.56a1.36,1.36,0,0,1-.38-1,1.34,1.34,0,0,1,.47-.94l3.73-3.23a2.34,2.34,0,0,0-.83-4.23l-4.68-1.56a1.33,1.33,0,0,1-.82-1.76l1.81-4.59a2.57,2.57,0,0,0-.14-2.44,2.44,2.44,0,0,0-2.57-.91l-4.86.78a1.32,1.32,0,0,1-1.55-1.17l-.54-4.91a2.34,2.34,0,0,0-2.25-2.34,2.89,2.89,0,0,0-1.7.63l-3.94,3a1.35,1.35,0,0,1-1.92-.32l-2.75-4.1a2.56,2.56,0,0,0-2.1-1.27,2.46,2.46,0,0,0-2.19,1.59l-2.12,4.46a1.35,1.35,0,0,1-1.85.6l-4.33-2.34a2.44,2.44,0,0,0-3,.25,2.65,2.65,0,0,0-.67,2l.2,4.92a1.32,1.32,0,0,1-1.36,1.39l-5-.05a2.5,2.5,0,0,0-2.28,1.14,2.54,2.54,0,0,0,.15,2.57l2.47,4.28a1.38,1.38,0,0,1,.13,1.05,1.34,1.34,0,0,1-.69.81l-4.39,2.23a2.34,2.34,0,0,0-.2,4.31l4.17,2.64a1.31,1.31,0,0,1,.6.87,1.33,1.33,0,0,1-.23,1l-2.85,4a2.34,2.34,0,0,0,1.82,3.9l2,.16-15.64,14.11a1,1,0,0,0-.3,1.13" transform="translate(-507.01 -516.18)"/></svg>