<svg id="Capa_1" data-name="Capa 1" xmlns="http://www.w3.org/2000/svg" viewBox="0 0 1037.59 541.8"><defs><style>.cls-1{fill:#cbd96b;}</style></defs><path class="cls-1" d="M1092.94,552.89V335.2c0-8.61,0-17.22,0-25.83a151.36,151.36,0,0,0-40.54-102.25c-26-28-62.44-44.18-100.33-46.72-38.23-2.57-75.35,11.11-104.72,35.12-29.58,24.18-47,59.8-51.79,97.24-1.48,11.51-1.11,23.14-1.11,34.72V455.34q0,48.26,0,96.51c0,3.28-.1,6.56-.33,9.83-.15,2.07-.42,4.12-.61,6.18.79-8.66.31-2.39-.09-.18a123.2,123.2,0,0,1-3.12,13.12c-1.08,3.63-2.43,7.13-3.72,10.69-1.16,3.2,2.9-6.39.82-2-.37.8-.72,1.6-1.1,2.4q-1.39,3-3,5.88-2.8,5.21-6.1,10.11c-1,1.45-2,2.86-3,4.29-2.77,4,3.46-4.23,1.31-1.65-.7.84-1.37,1.7-2.06,2.54A136.46,136.46,0,0,1,756.31,630c-1.59,1.34-4.42,2.59,1.67-1.26-.72.45-1.42,1-2.11,1.54q-2.13,1.53-4.32,3a122.08,122.08,0,0,1-11.34,6.59c-1.57.81-3.15,1.57-4.75,2.31-6.39,2.92,4.85-1.73-.48.2-4,1.45-8,2.86-12,4-3.91,1.07-7.88,1.94-11.88,2.62-.89.15-1.8.26-2.69.42,7.62-1.37,4.65-.57,2.85-.4-2.3.21-4.58.45-6.89.58-3.72.21-7.46.25-11.19.12q-3.14-.1-6.24-.37c-1.15-.09-2.29-.22-3.43-.33-4.49-.42,5.39.85,2.17.3a133.38,133.38,0,0,1-24.07-6.2l-2.48-.95c-3.87-1.42,2.43,1.07,2.55,1.11a42.33,42.33,0,0,1-5.39-2.49,122.21,122.21,0,0,1-10.91-6.07q-2.51-1.56-4.92-3.24c-1.68-1.16-7.11-5.87-.51-.18-3-2.57-6-5-8.89-7.67s-5.55-5.53-8.13-8.48c-1.28-1.47-2.48-3-3.75-4.52-2.18-2.55,4.07,5.61,1.31,1.65-.63-.9-1.28-1.77-1.9-2.67-4.41-6.35-9.44-13.79-11.8-21.22,0,.12,2.54,6.43,1.11,2.55-.31-.83-.64-1.65-1-2.48q-1-2.82-1.94-5.68a122.46,122.46,0,0,1-3.19-12.36c-.41-2-.73-4-1.07-6-.55-3.26.71,6.15.38,2.86-.11-1.14-.25-2.28-.35-3.43-.34-3.7-.48-7.42-.5-11.14-.13-28.86,0-57.72,0-86.58V334c0-8.69.1-17.38,0-26.07A150.88,150.88,0,0,0,557.9,205.22c-26.57-27.42-63.29-43.28-101.31-45s-75.13,12.36-103.95,36.95c-29.13,24.86-45.9,60.66-50.12,98.3-1.23,10.93-.78,22.12-.78,33.11V457.79c0,31.44.12,62.89,0,94.34,0,4.11-.17,8.22-.56,12.31a22.93,22.93,0,0,1-.37,3.42c0-.12,1.08-7.07.36-2.87-.34,2-.68,4-1.1,6a121.73,121.73,0,0,1-3.26,12.34q-.81,2.53-1.74,5c-.38,1-.83,2.05-1.19,3.1-1.11,3.22,2.9-6.39.82-2-1.68,3.58-3.38,7.13-5.34,10.58s-4,6.75-6.3,10c-.5.71-1,1.41-1.52,2.13-2.32,3.33,1.63-2,1.71-2.16a53.73,53.73,0,0,1-4.59,5.52q-3.68,4.17-7.69,8c-1.42,1.34-2.88,2.66-4.36,3.93-.82.71-1.65,1.41-2.5,2.1s-4.06,3.21-.43.39c3.92-3-1.65,1.12-2.65,1.8q-2.43,1.68-4.94,3.22-5.32,3.27-10.95,6c-1.58.77-3.23,1.41-4.8,2.2,7.95-4,.86-.43-1.18.29A119.29,119.29,0,0,1,227.64,647q-3,.74-5.94,1.33c-1.1.21-5.17.25-6,1,.13-.12,7.1-.82,2.85-.4l-2.74.28c-2.54.22-5.09.37-7.63.44q-5.25.15-10.5-.14-3.1-.18-6.2-.51c-2.12-.22-5.35-1.28,2.17.33-1.33-.28-2.7-.41-4-.65a135.14,135.14,0,0,1-23.19-6.6c-1.69-.63-3.95-2.16,2.55,1.11-.78-.39-1.62-.71-2.41-1.07q-3-1.38-5.92-2.91-5.24-2.75-10.18-6c-1.64-1.07-3.23-2.23-4.85-3.34s-4.07-3.58,1.63,1.33c-.66-.57-1.37-1.09-2-1.64a122.57,122.57,0,0,1-9.19-8.31q-3.91-3.93-7.48-8.18c-.56-.67-1.1-1.35-1.66-2-3.08-3.72,3.14,4.45,1.29,1.65-1.32-2-2.8-3.89-4.11-5.9-2-3.11-3.93-6.32-5.68-9.6-.93-1.75-1.82-3.51-2.66-5.3-.38-.8-.73-1.6-1.1-2.4-2.15-4.59,2.33,6.11.58,1.34a138.17,138.17,0,0,1-6.6-23.19c-.16-.89-.29-1.79-.45-2.69-.89-5,.63,5.7.28,2.19-.21-2.06-.43-4.12-.57-6.19-.19-2.81-.27-5.62-.28-8.44-.14-29.54,0-59.09,0-88.63V309.09c0-13.64-12-26.7-26.07-26.07s-26.08,11.45-26.08,26.07V526.78c0,8.61,0,17.22,0,25.83A151.46,151.46,0,0,0,95.94,654.87c26,28,62.44,44.17,100.33,46.72,38.23,2.56,75.35-11.12,104.72-35.12,29.58-24.19,47-59.8,51.79-97.25,1.47-11.51,1.11-23.14,1.11-34.71V406.65c0-32.17-.06-64.34,0-96.51,0-3.29.09-6.57.33-9.84.15-2.07.41-4.12.6-6.18-.79,8.66-.3,2.39.1.18A120.6,120.6,0,0,1,358,281.19c1.08-3.63,2.43-7.14,3.73-10.7,1.16-3.2-2.91,6.4-.83,2,.37-.79.73-1.6,1.1-2.4.94-2,1.93-3.95,3-5.88,1.87-3.46,3.9-6.84,6.09-10.11,1-1.45,2-2.85,3-4.28,2.77-4-3.45,4.22-1.3,1.64.7-.84,1.36-1.7,2.06-2.54A136.47,136.47,0,0,1,392,232c1.59-1.34,4.41-2.59-1.67,1.27.72-.46,1.41-1.06,2.1-1.55,1.42-1,2.86-2,4.32-3a121,121,0,0,1,11.35-6.59q2.36-1.2,4.75-2.3c6.39-2.93-4.85,1.73.48-.21,4-1.45,7.94-2.85,12-4q5.88-1.6,11.88-2.62c.9-.15,1.8-.26,2.7-.42-7.63,1.37-4.65.57-2.85.4,2.29-.21,4.58-.45,6.88-.57,3.73-.21,7.47-.25,11.2-.13,2.08.07,4.16.2,6.24.37l3.43.33c4.48.42-5.4-.84-2.18-.3a133,133,0,0,1,24.07,6.2c.83.31,1.66.65,2.49.95,3.87,1.43-2.43-1.07-2.56-1.11a41.82,41.82,0,0,1,5.4,2.49q5.6,2.76,10.91,6.07,2.49,1.56,4.92,3.24c1.68,1.17,7.1,5.87.51.19,3,2.56,6,5,8.89,7.67s5.55,5.52,8.12,8.47c1.29,1.48,2.48,3,3.75,4.52,2.18,2.55-4.07-5.6-1.3-1.64.62.89,1.27,1.77,1.9,2.66,4.4,6.36,9.44,13.79,11.8,21.23,0-.13-2.54-6.43-1.11-2.56.3.83.64,1.65.94,2.48.7,1.88,1.34,3.77,1.94,5.68a122,122,0,0,1,3.2,12.37c.41,2,.72,4,1.07,6,.55,3.26-.72-6.15-.39-2.86.12,1.15.26,2.29.36,3.43.33,3.71.48,7.42.5,11.14.13,28.86,0,57.72,0,86.58V528c0,8.68-.1,17.38,0,26.06a150.94,150.94,0,0,0,42.34,102.74c26.57,27.42,63.29,43.28,101.3,45s75.14-12.36,104-37c29.14-24.86,45.91-60.66,50.13-98.29,1.22-10.94.77-22.13.77-33.12V404.2c0-31.45-.11-62.9,0-94.35,0-4.11.17-8.21.56-12.31a24.34,24.34,0,0,1,.38-3.42c0,.13-1.08,7.07-.37,2.87.35-2,.69-4,1.11-6a123.14,123.14,0,0,1,3.26-12.34q.81-2.53,1.73-5c.39-1,.84-2,1.2-3.1,1.1-3.21-2.9,6.39-.83,2,1.68-3.58,3.39-7.13,5.34-10.58s4-6.75,6.3-10c.5-.71,1-1.41,1.53-2.12,2.32-3.34-1.64,2-1.71,2.15a53.73,53.73,0,0,1,4.59-5.52c2.44-2.77,5-5.44,7.69-8q2.13-2,4.35-3.94c.83-.71,1.66-1.41,2.5-2.1s4.07-3.21.44-.39c-3.92,3.05,1.64-1.11,2.65-1.8q2.43-1.66,4.94-3.22c3.54-2.18,7.2-4.19,10.94-6,1.59-.76,3.24-1.41,4.81-2.2-8,4-.86.44,1.17-.29q5.67-2,11.53-3.49c2-.49,3.94-.93,5.93-1.32,1.11-.22,5.17-.26,6-1-.13.12-7.1.82-2.85.4.91-.09,1.82-.19,2.74-.27q3.81-.34,7.63-.45,5.25-.15,10.49.15c2.08.11,4.14.28,6.21.5s5.34,1.29-2.17-.33c1.33.28,2.7.42,4,.66A134.47,134.47,0,0,1,982,219.88c1.69.63,3.95,2.16-2.56-1.11.79.39,1.62.71,2.42,1.08q3,1.36,5.92,2.9,5.22,2.76,10.18,6c1.64,1.08,3.23,2.23,4.84,3.34s4.08,3.59-1.62-1.32c.66.56,1.37,1.08,2,1.63a122.57,122.57,0,0,1,9.19,8.31q3.92,3.93,7.48,8.18c.56.67,1.1,1.36,1.65,2,3.08,3.71-3.14-4.46-1.29-1.66,1.32,2,2.8,3.9,4.12,5.9q3.06,4.68,5.68,9.6c.92,1.75,1.81,3.51,2.66,5.3.37.8.72,1.61,1.1,2.4,2.15,4.59-2.33-6.11-.58-1.34a137.2,137.2,0,0,1,6.59,23.19c.16.9.3,1.8.46,2.69.89,5-.64-5.7-.28-2.19.2,2.07.43,4.12.57,6.19.19,2.81.27,5.62.28,8.44.14,29.55,0,59.09,0,88.64V552.89c0,13.64,12,26.71,26.07,26.08s26.07-11.46,26.07-26.08Z" transform="translate(-55.38 -160.09)"/></svg>