<svg id="Capa_1" data-name="Capa 1" xmlns="http://www.w3.org/2000/svg" viewBox="0 0 52.34 31.76"><defs><style>.cls-1{fill:#1d1d1b;}</style></defs><path class="cls-1" d="M192.11,352.66a2.65,2.65,0,0,0-1.93.67,2.51,2.51,0,0,0-.7,1.91v7.47c0,1.72.89,2.58,2.66,2.58a4.1,4.1,0,0,0,1.05-.12,3,3,0,0,0,.8-.33,4,4,0,0,0,.68-.51l.71-.67L197.3,366a7.34,7.34,0,0,1-2.35,1.7,6.94,6.94,0,0,1-2.81.54,6.38,6.38,0,0,1-4.3-1.38,5.11,5.11,0,0,1-1.62-4.1v-7.47a5.76,5.76,0,0,1,.43-2.28,4.94,4.94,0,0,1,1.22-1.72,5.36,5.36,0,0,1,1.87-1.09,6.93,6.93,0,0,1,2.37-.39,9.65,9.65,0,0,1,1.7.14,4.75,4.75,0,0,1,1.38.44,4.85,4.85,0,0,1,1.17.82,6.92,6.92,0,0,1,1,1.21l-2.08,2a4,4,0,0,0-1.17-1.16A3.65,3.65,0,0,0,192.11,352.66Z" transform="translate(-186.17 -349.76)"/><path class="cls-1" d="M207.43,350l4.66,17.95h-3.32l-1-4.23H203L202,367.92h-3.34L203.43,350Zm-.37,11.08-1.66-7.76-1.68,7.76Z" transform="translate(-186.17 -349.76)"/><path class="cls-1" d="M224.34,358.82a5.06,5.06,0,0,1-2.15,1.5l3.5,7.6h-3.31L219,360.66h-1.5v7.26h-3.27V350h6a5.26,5.26,0,0,1,3.6,1.1,4.5,4.5,0,0,1,1.22,3.48v1.71A3.92,3.92,0,0,1,224.34,358.82Zm-6.8-1.06h2.73a1.66,1.66,0,0,0,1.13-.35,1.36,1.36,0,0,0,.43-1.12v-1.71a1.85,1.85,0,0,0-.37-1.25,1.58,1.58,0,0,0-1.21-.41h-2.71Z" transform="translate(-186.17 -349.76)"/><path class="cls-1" d="M237.59,357.38a2.33,2.33,0,0,1-1.42,1.23,3,3,0,0,1,.93.55,3.81,3.81,0,0,1,.75.85,4.09,4.09,0,0,1,.49,1.06,3.71,3.71,0,0,1,.17,1.14v1.24a5.26,5.26,0,0,1-.3,1.82,4,4,0,0,1-.87,1.4,3.82,3.82,0,0,1-1.35.92,4.58,4.58,0,0,1-1.77.33h-6.31V350h5.84a4.35,4.35,0,0,1,3.12,1.1,4.11,4.11,0,0,1,1.14,3.08v1.16A4.6,4.6,0,0,1,237.59,357.38Zm-6.42.1H233a1.53,1.53,0,0,0,1.76-1.77v-1.16a1.59,1.59,0,0,0-.42-1.27,2,2,0,0,0-1.34-.36h-1.79Zm4.08,4.57a1.76,1.76,0,0,0-.62-1.43,2.34,2.34,0,0,0-1.54-.51h-1.92V365h2.26a2.3,2.3,0,0,0,1.37-.33,1.47,1.47,0,0,0,.45-1.25Z" transform="translate(-186.17 -349.76)"/><path class="cls-1" d="M189.18,370.19a2.83,2.83,0,0,1,2,.69,2.45,2.45,0,0,1,.76,1.92v1.66a2.41,2.41,0,0,1-.21,1,2.15,2.15,0,0,1-.57.76,2.61,2.61,0,0,1-.87.47,3.81,3.81,0,0,1-1.08.15h-1.78v4.49h-1.25V370.19Zm1.5,2.63a1.51,1.51,0,0,0-.4-1.09,1.52,1.52,0,0,0-1.1-.39h-1.76v4.39h1.76a1.89,1.89,0,0,0,1.08-.29,1.13,1.13,0,0,0,.42-1Z" transform="translate(-186.17 -349.76)"/><path class="cls-1" d="M200.12,370.19h1.22v11.18h-1.22v-4.83h-4.64v4.83h-1.22V370.19h1.22v5.2h4.64Z" transform="translate(-186.17 -349.76)"/><path class="cls-1" d="M207.77,370.07l3.21,11.3h-1.29l-1-3.37h-3.37l-1,3.37h-1.3l3.31-11.3Zm.67,6.86-1.38-5.28-1.41,5.28Z" transform="translate(-186.17 -349.76)"/><path class="cls-1" d="M216.32,375.39l.76.53a4.16,4.16,0,0,1,.76.64,3.37,3.37,0,0,1,.6.87,2.9,2.9,0,0,1,.24,1.25,3,3,0,0,1-.25,1.25,2.45,2.45,0,0,1-.69.89,3.06,3.06,0,0,1-1.05.53,5,5,0,0,1-1.32.17,4.33,4.33,0,0,1-2.07-.49,3.22,3.22,0,0,1-1.4-1.53l1-.73a2.54,2.54,0,0,0,2.44,1.6,2.77,2.77,0,0,0,1.53-.36,1.49,1.49,0,0,0,.56-1.35,1.35,1.35,0,0,0-.29-.86,3.38,3.38,0,0,0-.69-.67,7,7,0,0,0-.81-.53,5.18,5.18,0,0,1-.68-.42c-.22-.17-.48-.35-.78-.55a5.1,5.1,0,0,1-.86-.69,3.56,3.56,0,0,1-.68-.9,2.42,2.42,0,0,1-.28-1.2,2.54,2.54,0,0,1,.88-2.12,3.88,3.88,0,0,1,4-.27,3.93,3.93,0,0,1,1.3,1.12l-.8.92a3.84,3.84,0,0,0-.44-.48,4.69,4.69,0,0,0-.55-.42,3.64,3.64,0,0,0-.63-.3,2,2,0,0,0-.67-.11,2.15,2.15,0,0,0-1.37.37,1.57,1.57,0,0,0-.47,1.27,1.24,1.24,0,0,0,.31.82,3.87,3.87,0,0,0,.75.7,8.7,8.7,0,0,0,.9.59A8,8,0,0,1,216.32,375.39Z" transform="translate(-186.17 -349.76)"/><path class="cls-1" d="M221.82,376.23v4h4v1.15H220.6V370.19h5v1.15h-3.73v3.77H225v1.12Z" transform="translate(-186.17 -349.76)"/><path class="cls-1" d="M232,370.19h1.25v11.18H232Z" transform="translate(-186.17 -349.76)"/><path class="cls-1" d="M236.83,370.19h1.25v11.18h-1.25Z" transform="translate(-186.17 -349.76)"/></svg>