<svg id="Capa_1" data-name="Capa 1" xmlns="http://www.w3.org/2000/svg" viewBox="0 0 65.25 76.61"><defs><style>.cls-1,.cls-2{fill:none;stroke:#fff;stroke-miterlimit:10;}.cls-1{stroke-width:2.48px;}.cls-2{stroke-width:2.44px;}.cls-3{fill:#fff;}</style></defs><path class="cls-1" d="M286.83,538.5s-28-4.46-23.58,23.59C291.3,566.5,286.83,538.5,286.83,538.5Z" transform="translate(-237.22 -513.39)"/><line class="cls-1" x1="42.29" y1="32.43" x2="26.03" y2="48.7"/><path class="cls-1" d="M238.72,538.5s28-4.46,23.59,23.59C234.26,566.5,238.72,538.5,238.72,538.5Z" transform="translate(-237.22 -513.39)"/><line class="cls-1" x1="9.76" y1="33.38" x2="25.08" y2="48.7"/><path class="cls-1" d="M263.87,573.57s-.27-6.16-.45-12h-1.29c-.21,7.06-.16,13-.16,13Z" transform="translate(-237.22 -513.39)"/><path class="cls-2" d="M241.23,589c.93-2.36,2.66-.83,4.23-1.81a20.78,20.78,0,0,0,5.08-4.45,4.33,4.33,0,0,1,.79-.81,5.28,5.28,0,0,1,1.57-.58c2.47-.74,4.25-2.81,6.23-4.46s4.76-2.93,7.07-1.79c1.1.54,2,1.61,3.21,1.75.64.07,1.3-.13,1.94,0,2.2.35,2.71,3.79,4.88,4.32.93.23,2-.14,2.81.34.58.34.88,1,1.4,1.45,1,.81,2.4.58,3.67.58s2.84.65,2.81,1.92c0,0,.92,3.06,2.45,3.36" transform="translate(-237.22 -513.39)"/><path class="cls-3" d="M294.19,513.39a24.52,24.52,0,0,1,1.2,5.14,40.32,40.32,0,0,1,.33,5.14,38.46,38.46,0,0,1-.33,5.14,23.2,23.2,0,0,1-1.2,5.14,23.2,23.2,0,0,1-1.2-5.14,38.46,38.46,0,0,1-.33-5.14,40.32,40.32,0,0,1,.33-5.14A24.52,24.52,0,0,1,294.19,513.39Z" transform="translate(-237.22 -513.39)"/><path class="cls-3" d="M285.9,523.67a17.5,17.5,0,0,1,4.15-1.07,27.46,27.46,0,0,1,4.14-.3,28.81,28.81,0,0,1,4.14.29,18.29,18.29,0,0,1,4.15,1.08,17.78,17.78,0,0,1-4.15,1.08,27.45,27.45,0,0,1-4.14.29,28.81,28.81,0,0,1-4.14-.29A18,18,0,0,1,285.9,523.67Z" transform="translate(-237.22 -513.39)"/><path class="cls-3" d="M284.27,524.36a13.27,13.27,0,0,1,.67,2.89,22.07,22.07,0,0,1,0,5.78,12.47,12.47,0,0,1-.67,2.89,13.59,13.59,0,0,1-.67-2.89,21.47,21.47,0,0,1-.19-2.89,23.5,23.5,0,0,1,.19-2.89A13.87,13.87,0,0,1,284.27,524.36Z" transform="translate(-237.22 -513.39)"/><path class="cls-3" d="M279.61,530.14a10.13,10.13,0,0,1,2.33-.6,15.32,15.32,0,0,1,2.33-.17,15.13,15.13,0,0,1,2.33.17,9.52,9.52,0,0,1,2.33.6,10,10,0,0,1-2.33.61,15.12,15.12,0,0,1-2.33.16,14.13,14.13,0,0,1-2.33-.17A9.64,9.64,0,0,1,279.61,530.14Z" transform="translate(-237.22 -513.39)"/></svg>