<svg id="Capa_1" data-name="Capa 1" xmlns="http://www.w3.org/2000/svg" viewBox="0 0 77.56 77.56"><defs><style>.cls-1{fill:#71a3d8;}.cls-2{fill:#fff;}</style></defs><path class="cls-1" d="M460.86,380.58a38.78,38.78,0,1,0-38.78-38.78,38.78,38.78,0,0,0,38.78,38.78" transform="translate(-422.08 -303.02)"/><path class="cls-2" d="M441.23,338.22h4.71v9.27h-4.71Zm-.64,10.55h6a.65.65,0,0,0,.65-.64V337.59a.64.64,0,0,0-.65-.64h-6a.63.63,0,0,0-.64.64v10.54a.64.64,0,0,0,.64.64" transform="translate(-422.08 -303.02)"/><path class="cls-2" d="M449.9,337.87l10.38-9.18v26.08l-10.38-7Zm10.67,18.63a.63.63,0,0,0,.35.11.67.67,0,0,0,.31-.07.64.64,0,0,0,.34-.57V327.26a.64.64,0,0,0-.38-.58.65.65,0,0,0-.69.11l-11.67,10.32a.65.65,0,0,0-.21.48v10.54a.63.63,0,0,0,.28.53Z" transform="translate(-422.08 -303.02)"/><path class="cls-2" d="M474.19,355.5a.62.62,0,0,1-.18-.44.61.61,0,0,1,.2-.46,16.28,16.28,0,0,0,0-23.48.63.63,0,0,1,0-.9.64.64,0,0,1,.91,0,17.53,17.53,0,0,1,0,25.31.65.65,0,0,1-.91,0m7.59-12.64A18.69,18.69,0,0,0,476,329.29a2,2,0,0,0-2.73,0,1.9,1.9,0,0,0,0,2.7,15,15,0,0,1,0,21.66,1.87,1.87,0,0,0-.58,1.37,1.89,1.89,0,0,0,.54,1.33,1.94,1.94,0,0,0,2.73,0,18.71,18.71,0,0,0,5.78-13.57" transform="translate(-422.08 -303.02)"/><path class="cls-2" d="M466.63,350.13a10,10,0,0,0,0-14.54.61.61,0,0,1-.2-.45.67.67,0,0,1,.18-.46.64.64,0,0,1,.45-.19h0a.66.66,0,0,1,.45.17,11.28,11.28,0,0,1,0,16.39.62.62,0,0,1-.46.18.65.65,0,0,1-.63-.64.63.63,0,0,1,.2-.46m.44,2.37a1.92,1.92,0,0,0,1.33-.52,12.53,12.53,0,0,0,0-18.24,2,2,0,0,0-1.37-.53,1.89,1.89,0,0,0-1.35.59,1.85,1.85,0,0,0-.53,1.37,1.91,1.91,0,0,0,.59,1.34,8.73,8.73,0,0,1,0,12.7,1.91,1.91,0,0,0-.6,1.38,1.85,1.85,0,0,0,.54,1.32,1.89,1.89,0,0,0,1.35.59h0" transform="translate(-422.08 -303.02)"/></svg>