<svg id="Capa_1" data-name="Capa 1" xmlns="http://www.w3.org/2000/svg" viewBox="0 0 129.33 130.27"><defs><style>.cls-1{fill:#fff;}</style></defs><g id="eXjKk7.tif"><path class="cls-1" d="M68.74,9.64h13a7,7,0,0,0,.79.19,53.92,53.92,0,0,1,19.13,5.28c21,10.29,33.72,26.9,36.68,50.32,1.78,14-.6,27.51-8.08,39.73-12.62,20.63-31.2,31.22-55.26,31.7a58.39,58.39,0,0,1-28.41-6.93,4.79,4.79,0,0,0-4-.33c-3.89,1.32-7.82,2.53-11.73,3.8l-19.9,6.49c-.65,0-1.6.33-1.3-1q5.31-15.7,10.61-31.42a3.61,3.61,0,0,0-.38-3.22,62.43,62.43,0,0,1-8.23-31.58,61.36,61.36,0,0,1,7.67-29.77c8.19-14.82,20.25-25,36.33-30.44A68.53,68.53,0,0,1,68.74,9.64ZM26.6,123.09c6-1.94,11.72-3.73,17.36-5.6a4.55,4.55,0,0,1,4.11.32c17.26,10,34.92,10.52,52.47,1.18,24.1-12.81,33.86-43.24,22.25-68.1-11-23.5-37.76-35.82-62.54-27.95C39.57,29.5,27.13,44,23.63,65.6c-2.13,13.12.8,25.34,8.09,36.44a4.67,4.67,0,0,1,.46,4.66C30.28,112,28.54,117.35,26.6,123.09Z" transform="translate(-9.57 -9.64)"/><path class="cls-1" d="M55.47,41.82c4.36.25,4.76.57,6.17,4.44,1.31,3.62,2.61,7.24,4,10.82A4.22,4.22,0,0,1,65.4,61a21.71,21.71,0,0,1-4.06,4.84,2.48,2.48,0,0,0-.46,3.35A43,43,0,0,0,81.35,88.39c2.26,1,2.72.94,4.37-.88s3-3.42,4.47-5.16a2.89,2.89,0,0,1,3.86-.92c4.42,2.06,8.67,4.46,12.94,6.79a2.75,2.75,0,0,1,1.48,2.68c0,7.78-5.13,12.17-12.91,13.92-4,.9-7.69-.28-11.37-1.6-8.12-2.91-15.7-6.7-22-12.82A89.24,89.24,0,0,1,48.91,73.63c-2.75-4.36-5-8.9-5.43-14.12A18.49,18.49,0,0,1,50.2,43.2,6.16,6.16,0,0,1,55.47,41.82Z" transform="translate(-9.57 -9.64)"/></g></svg>