<svg id="Capa_1" data-name="Capa 1" xmlns="http://www.w3.org/2000/svg" viewBox="0 0 118.69 118.69"><defs><style>.cls-1{fill:none;stroke:#fff;stroke-miterlimit:10;stroke-width:5px;}</style></defs><ellipse class="cls-1" cx="-534.43" cy="-432.67" rx="56.87" ry="56.82" transform="translate(742.89 -15.39) rotate(-45.23)"/><path class="cls-1" d="M-590.76-440.45l2.88.92a2.74,2.74,0,0,1,1.22.63,2.81,2.81,0,0,1,.56,1.15,42.75,42.75,0,0,0,4,9.59,30.61,30.61,0,0,0,7.17,7.59c1.22,1,2.95,1.44,3,3.29a11.28,11.28,0,0,1-.68,3.06c-1.08,4.06.48,8.51,3.31,11.63,1.55,1.71,3.47,3.1,4.74,5,2.51,3.8,2.37,8.71,4.92,12.53a14.63,14.63,0,0,0,10.76,6.39c.75.07,1.74-.12,1.83-.86.06-.53-.41-.95-.85-1.25-1.82-1.28-4-2.6-4.39-4.8a7.3,7.3,0,0,1,.41-3.23c.86-3.06,1.37-6.43,3.14-9.09,1.56-2.34,3.63-4.34,4.58-7a5,5,0,0,0,.3-3.1,4.87,4.87,0,0,0-3.16-2.8,18.86,18.86,0,0,1-4-1.66c-2.25-1.55-3-4.39-5.18-6.06s-5.13-2.64-7.75-3.78a6.18,6.18,0,0,0-4.36-.54,2.57,2.57,0,0,1-1.34.29,1.87,1.87,0,0,1-1.05-1c-1.9-3.13-4.29-6.88-3.53-10.63a12.73,12.73,0,0,1,3.33-6.55,2,2,0,0,1,1.9-.77,2.11,2.11,0,0,1,1,1.09,36.6,36.6,0,0,1,2,4.09c.29.71.74,1.55,1.5,1.54s1.24-1.09,1.31-1.95a14.54,14.54,0,0,0-.42-4.78,4.24,4.24,0,0,1-.24-1.45,3,3,0,0,1,1.72-2.17c.85-.46,1.8-.72,2.61-1.23a5.23,5.23,0,0,0,2-2.64c.17-.42.5-2.59.88-2.67,3-.65,6.16,2.77,7.56-1.43a22.18,22.18,0,0,0,.93-4.44c.43-3.66,1.61-13.8-5.12-11.91-2.12.6-4.16,5.51-6.39,4.91-.91-.25-2-2.86-2.26-3.67-1.32-3.66,4-3.41,3.64-6.28-.14-1.3-5.51-5.09-6.79-6.34" transform="translate(593.78 492.01)"/><path class="cls-1" d="M-550.6-487.18c-.48,1.88,1.42,3.85,2.44,5.2a11.76,11.76,0,0,1,2.26,5.66,8.45,8.45,0,0,0,2.43,4.45,2.6,2.6,0,0,0,1.83.9,3.38,3.38,0,0,0,1.68-.81,21.65,21.65,0,0,1,6.64-3.27c2.15-.64,4.75-.56,6-2.74.56-.95.67-2.17,1.46-2.95,1.59-1.58,3.57-1.72,3-4.57a7.58,7.58,0,0,0-1.69-3.34" transform="translate(593.78 492.01)"/><path class="cls-1" d="M-477.73-428.41s-7.51-7.87-12.27-8.88a2.66,2.66,0,0,0-2.39.33c-.78.75,4.71,7.86,3.14,9.82s-5.69-1.54-8.2-2.5c-.92-.35-2.16-.36-2.66.48s0,1.78.46,2.56c1,1.68,7.8,7.18,7.8,8.84s-4.35,4.17-6.14,8.66c-.73,1.83-.86,3.84-1.44,5.73-1.33,4.37-3.4,8.42-7.4,10.74-1.88,1.1-5.69.08-6.42-1.76-3-7.54-.88-17.6-3.52-20.7s-7.13-1.23-10-1.61c-3.13-.43-5.1-3.66-5.82-6.74-1.73-7.36,2.89-12,9.25-14.74,2.09-.88,4.45-1.64,6.57-.85s4.27,3.59,6.67,2.31c1.83-1,1.65-3.63.8-5.21-1.49-2.78-5.83-7.19-9.24-5.28-1,.57-1.85,1.41-2.84,2-4.17,2.61-9.56-3.52-4.78-5.7,4-1.81,11.87-7,5-10.56s5.2-9.9,9.55-10.18,4.83,1.93,8.18,1,4.39-4.41,5.11-5.83" transform="translate(593.78 492.01)"/></svg>