<svg id="Capa_1" data-name="Capa 1" xmlns="http://www.w3.org/2000/svg" viewBox="0 0 52.53 18.42"><defs><style>.cls-1{fill:#1d1d1b;}</style></defs><path class="cls-1" d="M187,304.68v-2.9h12v2.9h-4.39v15h-3.27v-15Z" transform="translate(-186.95 -301.52)"/><path class="cls-1" d="M208.56,309.78c.48.32.9.62,1.29.9a4.35,4.35,0,0,1,1,1,4.23,4.23,0,0,1,.64,1.35,7.06,7.06,0,0,1,.24,2,4.76,4.76,0,0,1-.43,2.09,4.39,4.39,0,0,1-1.19,1.53,5.15,5.15,0,0,1-1.75.93,6.88,6.88,0,0,1-2.16.32,8,8,0,0,1-3.5-.74,5.37,5.37,0,0,1-2.47-2.55l2.47-2a5,5,0,0,0,1.31,1.74,3.15,3.15,0,0,0,2,.61,3.29,3.29,0,0,0,1.79-.41,1.74,1.74,0,0,0,.64-1.59,1.61,1.61,0,0,0-.44-1.12A5.32,5.32,0,0,0,207,313a12.7,12.7,0,0,0-1.36-.78c-.48-.23-.92-.47-1.3-.7s-.76-.51-1.16-.8a6.13,6.13,0,0,1-1.12-1.05,5.47,5.47,0,0,1-.85-1.43,5,5,0,0,1-.35-1.93,4.89,4.89,0,0,1,.42-2.1,4.29,4.29,0,0,1,1.16-1.49,5,5,0,0,1,1.78-.88,8.45,8.45,0,0,1,2.25-.29,5.18,5.18,0,0,1,1.26.16,6.75,6.75,0,0,1,2.54,1.21,6.78,6.78,0,0,1,1.07,1l-1.87,2.42a5.07,5.07,0,0,0-.66-.64,6.44,6.44,0,0,0-.84-.61,6.08,6.08,0,0,0-.92-.46,2.59,2.59,0,0,0-.92-.18,2.4,2.4,0,0,0-1.5.39,1.66,1.66,0,0,0-.5,1.39,1.58,1.58,0,0,0,.55,1.15,7.56,7.56,0,0,0,1.3,1,15.87,15.87,0,0,0,1.5.82A7.41,7.41,0,0,1,208.56,309.78Z" transform="translate(-186.95 -301.52)"/><path class="cls-1" d="M219.51,304.42a2.64,2.64,0,0,0-1.93.67,2.48,2.48,0,0,0-.7,1.9v7.48c0,1.72.88,2.58,2.66,2.58a4.1,4.1,0,0,0,1.05-.12,3.2,3.2,0,0,0,.8-.33,3.6,3.6,0,0,0,.67-.51l.71-.67,1.92,2.29a7.17,7.17,0,0,1-2.34,1.69,6.94,6.94,0,0,1-2.81.54,6.43,6.43,0,0,1-4.31-1.38,5.07,5.07,0,0,1-1.62-4.09V307a5.67,5.67,0,0,1,.44-2.27,5,5,0,0,1,1.22-1.73,5.69,5.69,0,0,1,1.87-1.09,7.18,7.18,0,0,1,2.37-.38,9.71,9.71,0,0,1,1.7.13,5,5,0,0,1,2.55,1.26,6.56,6.56,0,0,1,1,1.22l-2.08,2a3.91,3.91,0,0,0-1.17-1.16A3.59,3.59,0,0,0,219.51,304.42Z" transform="translate(-186.95 -301.52)"/><path class="cls-1" d="M234.83,301.73l4.66,17.95h-3.32l-1-4.24h-4.71l-1.05,4.24H226l4.79-17.95Zm-.37,11.08-1.66-7.76-1.68,7.76Z" transform="translate(-186.95 -301.52)"/></svg>