<svg id="Capa_1" data-name="Capa 1" xmlns="http://www.w3.org/2000/svg" viewBox="0 0 550.4 150.36"><defs><style>.cls-1{fill:#fff;}</style></defs><path class="cls-1" d="M69,54.45a22.76,22.76,0,0,0,6.82-6.93A26.15,26.15,0,0,0,79.1,34c0-8.33-2.83-15.05-8.44-20C65.17,9.6,57.21,7.34,47,7.34H11.56a11,11,0,0,0-8.18,3.48A11.69,11.69,0,0,0,0,19.25v89.19a1.45,1.45,0,0,0,1.45,1.46H45.6c11.53,0,20.63-2.73,27.09-8.17C79,96.06,82.18,88.08,82.18,78c0-6.24-1.31-11.39-3.91-15.32A26.28,26.28,0,0,0,69,54.45ZM53.16,43.54c-2,1.53-5.29,2.32-9.82,2.32H22V27.68H43.06c6.32,0,9,1.08,10.1,2C55.05,31.15,56,33.41,56,36.63s-.92,5.46-2.81,6.91M22,65.9H43.91c5.45,0,9.32.88,11.48,2.58s3.38,4.78,3.38,9-1.08,7-3.34,8.65C52.88,88,49.11,89,44.19,89H22Z"/><path class="cls-1" d="M101.08,3.91A38.25,38.25,0,0,0,96.69,8.2a39.51,39.51,0,0,0-3.93,5.34,29.71,29.71,0,0,0-2.86,6,19.15,19.15,0,0,0-1.09,6.29v84h19.87V0a7.69,7.69,0,0,0-3.38,1.05,24,24,0,0,0-4.22,2.86"/><path class="cls-1" d="M542.39,47.89q-8.08-10-22.34-10A27,27,0,0,0,507.16,41a29.41,29.41,0,0,0-2.74,1.74,35.75,35.75,0,0,0-2.94,2.36c-1,.87-1.94,1.8-2.87,2.79a25.13,25.13,0,0,0-2.41,3l-.09-3.69V37.85H476.25V150.36a7.83,7.83,0,0,0,3.38-1.05,24.79,24.79,0,0,0,4.22-2.88,38.46,38.46,0,0,0,4.38-4.31,40,40,0,0,0,3.94-5.38,30,30,0,0,0,2.86-6.06,19.31,19.31,0,0,0,1.08-6.32V93.76a28.49,28.49,0,0,0,2.38,3.54c.91,1.19,1.87,2.31,2.84,3.35a38.38,38.38,0,0,0,2.92,2.83,26,26,0,0,0,2.72,2.09,23.92,23.92,0,0,0,12.9,3.91h1.21a34.91,34.91,0,0,0,12-2.51,24.05,24.05,0,0,0,9.31-7.07q8-9.42,8-25.13,0-17-8-26.88m-17.61,40a13.18,13.18,0,0,1-10.87,5.06,12.62,12.62,0,0,1-11-5.59,21.45,21.45,0,0,1-3-5.84,30.43,30.43,0,0,1-1.09-8.56q0-8.1,4.37-13.34A13.89,13.89,0,0,1,514,54.44a12.65,12.65,0,0,1,10.86,5.5q4,5.22,3.95,14.39c0,5.64-1.33,10.15-4,13.53"/><path class="cls-1" d="M434.59,109.9a41.8,41.8,0,0,1-15.89-2.76,30,30,0,0,1-11.18-7.68,32.68,32.68,0,0,1-6.68-11.53,44,44,0,0,1-2.25-14.28,45.24,45.24,0,0,1,2.25-14.42,32.47,32.47,0,0,1,6.68-11.66,30.61,30.61,0,0,1,11.18-7.75A40.82,40.82,0,0,1,434.59,37a41.41,41.41,0,0,1,16,2.83,30.42,30.42,0,0,1,18,19.41,46.67,46.67,0,0,1,2.18,14.42,45.37,45.37,0,0,1-2.18,14.28,31.38,31.38,0,0,1-6.68,11.53,30.62,30.62,0,0,1-11.32,7.68A42.41,42.41,0,0,1,434.59,109.9Zm0-14.55q8.13,0,11.69-5.6t3.55-16.1q0-10.52-3.55-16.11T434.59,52q-8,0-11.54,5.59t-3.56,16.11q0,10.51,3.56,16.1T434.59,95.35Z"/><path class="cls-1" d="M162.78,38V83.24a11.54,11.54,0,0,1-11.6,11.48h0a11.54,11.54,0,0,1-11.6-11.48V38H119.26V89.29a20.71,20.71,0,0,0,20.82,20.61h22.19a20.71,20.71,0,0,0,20.82-20.61V38Z"/><path class="cls-1" d="M254.33,78.61v-18c0-13.11-12.43-23.34-23.44-23.34h-14c-11,0-20.2,10.55-24,23.34a48.41,48.41,0,0,0-1.69,13,44,44,0,0,0,2.38,14.22,30.72,30.72,0,0,0,6.53,11.65,29.76,29.76,0,0,0,11.42,7.65,45.84,45.84,0,0,0,16.8,2.75,65.4,65.4,0,0,0,23.94-4.13c-.09-2.94,0-5.72,0-8.07V89.82a105.1,105.1,0,0,1-13,3.61,51.53,51.53,0,0,1-9.45.9q-8.43,0-13.6-3.72c-3.45-2.49-5.35-6.48-5.72-12h43.82ZM210,65q.71-7,4.37-10.89t10.72-3.86c4.14,0,7.35,1.35,9.66,4.06s3.54,6.28,3.73,10.69Z"/><path class="cls-1" d="M271.83,8.34a10.69,10.69,0,0,0-8,3.44,11.68,11.68,0,0,0-3.3,8.36v88.3A1.43,1.43,0,0,0,262,109.9h31.81c9.06,0,15.93-.69,20.41-2.07a38.44,38.44,0,0,0,13.38-7.12c4.92-4,8.95-9.76,12-17.27a71.35,71.35,0,0,0,3.93-24.32c0-16.73-3.72-29.6-11.06-38.27C325,12.55,313.69,8.34,299,8.34Zm49.08,50.78c0,11-1.91,18.8-5.69,23.11-3.9,4.62-10.24,7-18.7,7H282.29V28.48H299c7.77,0,13,2.35,16.45,7.17,3.63,4.89,5.47,12.78,5.47,23.47"/><path class="cls-1" d="M395.35,37.28H378.92c-15.78,0-28.58,13.62-28.58,30.41V109.9h20.4V73.37c0-9,6.85-16.27,15.3-16.27h9.31Z"/></svg>