<svg id="Capa_1" data-name="Capa 1" xmlns="http://www.w3.org/2000/svg" viewBox="0 0 63.84 57.48"><defs><style>.cls-1{fill:#fff;}.cls-2{fill:#698a82;}.cls-3{fill:#bed9cb;}</style></defs><path class="cls-1" d="M552.53,325.66l4.79-3-5.07-2.49,4.09-3.9-5.47-1.42,3.22-4.65-5.64-.29,2.22-5.19-5.58.84,1.13-5.53-5.3,2v-5.64l-4.8,3L535,293.79l-4.1,3.88-2.24-5.19-3.23,4.63-3.23-4.63-2.24,5.19-4.1-3.88-1.14,5.53-4.8-3V302l-5.3-2,1.13,5.53-5.58-.84,2.21,5.19-5.63.29,3.21,4.65-5.46,1.42,4.09,3.9-5.07,2.49,4.79,3-4.46,3.46,5.29,2-3.67,4.29,5.58.86-2.73,4.95,5-.25-.83.42.08.26a23.75,23.75,0,0,0,4.34,8.09l.22.25a44.78,44.78,0,0,1,7.83-3.21,24.72,24.72,0,0,0,21,0,45.4,45.4,0,0,1,7.79,3.15l.22-.17a23.73,23.73,0,0,0,4.33-8.09l.08-.26-.82-.42,5,.25-2.73-4.95,5.58-.86-3.67-4.29,5.29-2Z" transform="translate(-493.48 -292.48)"/><path class="cls-2" d="M551.24,325.59l4.56-2.85L551,320.36l3.9-3.71-5.21-1.36,3.07-4.42-5.37-.28,2.11-4.94-5.32.8,1.08-5.27L540.18,303v-5.37l-4.57,2.83-1.09-5.26-3.9,3.7L528.48,294l-3.08,4.41L522.32,294l-2.13,4.94-3.9-3.7-1.09,5.26-4.57-2.83V303l-5.05-1.86,1.08,5.27-5.32-.8,2.11,4.94-5.37.28,3.07,4.42-5.21,1.36,3.89,3.71L495,322.74l4.56,2.85-4.25,3.3,5,1.88-3.5,4.08,5.32.82-2.6,4.71,5.37-.26v0l1.06-.46a24.73,24.73,0,1,1,38.82,0l1.06.46v0l5.37.26-2.6-4.71,5.31-.82-3.49-4.08,5-1.88Z" transform="translate(-493.48 -292.48)"/><path class="cls-2" d="M525.4,300.42a23.94,23.94,0,0,0-18.66,38.94,50.55,50.55,0,0,1,7.22-2.31,17.07,17.07,0,0,1-3.28-21.26,1.4,1.4,0,0,1,.65-2.05,1.34,1.34,0,0,1,.81-.08,17.62,17.62,0,0,1,2.47-2.49,1.54,1.54,0,0,1,.57-.44,17.09,17.09,0,0,1,21.72,26.34,48.12,48.12,0,0,1,7.16,2.29,23.94,23.94,0,0,0-18.66-38.94m-9.29,46a24,24,0,0,0,18.64,0,36.3,36.3,0,0,0-9.15-1.18,38.47,38.47,0,0,0-9.49,1.21" transform="translate(-493.48 -292.48)"/><path class="cls-2" d="M547.56,341.69a48.6,48.6,0,0,0-18.17-5.15,1.45,1.45,0,0,1-.54.27,1.59,1.59,0,0,1-1.43-.33l-.08-.06c-.65,0-1.29-.05-1.94-.05h-.16a1.38,1.38,0,0,1,.31,1.46,1.41,1.41,0,0,1-1.85.72,1.46,1.46,0,0,1-.91-1.05v-.06a1.89,1.89,0,0,0-.29-1,48.76,48.76,0,0,0-19.26,5.23h0a23,23,0,0,0,4,7.39h0a40.72,40.72,0,0,1,18.4-4.53,39.42,39.42,0,0,1,18,4.53h0a23.27,23.27,0,0,0,4-7.39Z" transform="translate(-493.48 -292.48)"/><path class="cls-1" d="M511.85,341.79a1.38,1.38,0,0,0-1.22-.11,1.28,1.28,0,0,0-.74,1.71,1.25,1.25,0,0,0,1.68.77,1.43,1.43,0,0,0,.84-.86l.53,1.41a3.71,3.71,0,0,1-1,.6,2.68,2.68,0,0,1-2,0,2.35,2.35,0,0,1-1.37-1.44,2.53,2.53,0,0,1,0-1.91,2.57,2.57,0,0,1,1.45-1.37,3,3,0,0,1,1.16-.18Z" transform="translate(-493.48 -292.48)"/><polygon class="cls-1" points="20.6 48.07 20.82 48.85 22.18 48.48 22.46 49.5 21.1 49.88 21.32 50.68 22.76 50.29 23.04 51.31 20.39 52.04 19.11 47.38 21.76 46.65 22.04 47.68 20.6 48.07"/><path class="cls-1" d="M518.24,340.74l.12,0c.4-.07.84-.22.76-.74s-.56-.52-1-.45l-.12,0Zm3.16,2.18-1.54.25-1.48-1.64h0l.3,1.83-1.24.21-.79-4.77,1.85-.31a1.46,1.46,0,0,1,1.91,1.19,1.3,1.3,0,0,1-.82,1.52Z" transform="translate(-493.48 -292.48)"/><polygon class="cls-1" points="30.35 50.32 29.09 50.39 28.88 46.62 27.84 46.68 27.78 45.62 31.11 45.43 31.17 46.49 30.13 46.55 30.35 50.32"/><rect class="cls-1" x="523.74" y="339.74" width="4.84" height="1.26" transform="translate(-318.09 567.17) rotate(-88.86)"/><polygon class="cls-1" points="35.82 46.7 35.75 47.5 37.12 47.63 37.03 48.69 35.66 48.56 35.49 50.46 34.24 50.34 34.66 45.53 37.43 45.77 37.33 46.83 35.82 46.7"/><rect class="cls-1" x="529.91" y="340.28" width="4.84" height="1.26" transform="translate(-379.76 522.1) rotate(-81.17)"/><polygon class="cls-1" points="42.11 47.66 41.94 48.45 43.32 48.76 43.09 49.8 41.7 49.49 41.52 50.31 42.98 50.63 42.75 51.67 40.06 51.07 41.12 46.35 43.8 46.95 43.57 47.99 42.11 47.66"/><path class="cls-1" d="M538.67,343.75l.27.09a1.35,1.35,0,1,0,.85-2.57l-.28-.09Zm0-4,1.69.55a2.42,2.42,0,1,1-1.49,4.6l-1.7-.55Z" transform="translate(-493.48 -292.48)"/><path class="cls-2" d="M537.29,322.18h-.37v.4c0,.5,0,.69,0,.81h-.25c0-.28,0-.56,0-.83s0-.31,0-.39h-.38a.76.76,0,0,1,0-.15h1v0a.81.81,0,0,0,0,.15Z" transform="translate(-493.48 -292.48)"/><path class="cls-2" d="M538.82,322c0,.46,0,.91,0,1.37v0h-.23c0-.23,0-.29,0-.51v-.73c0,.12-.06.22-.14.5l-.09.28c-.08.22-.1.3-.15.45v0H538l0-.1c0-.06-.1-.36-.12-.42l-.08-.28a2.93,2.93,0,0,1-.11-.44c0,.2,0,.24,0,.44l0,.35c0,.24,0,.29,0,.44v0h-.2s0-.08,0-.12c0-.24,0-.47,0-.71s0-.37,0-.54v0h.32a4,4,0,0,0,.11.41l.21.79.25-.82c.08-.26.09-.27.12-.37v0h.31Z" transform="translate(-493.48 -292.48)"/><path class="cls-1" d="M505,327.62v-.09c-.05-.31-.15-.66-.55-.6s-.41.41-.37.72v.1Zm1.74-2.38.17,1.19-1.3,1.1h0l1.41-.2.13,1-3.68.51-.2-1.44a1.12,1.12,0,0,1,1-1.43,1,1,0,0,1,1.15.66Z" transform="translate(-493.48 -292.48)"/><path class="cls-1" d="M504.32,322.64h0l1.14.5.07-.8Zm1.86.83.62.31-.08,1-3.59-1.72.08-1.06,3.82-1.09-.08,1-.66.19Z" transform="translate(-493.48 -292.48)"/><rect class="cls-1" x="505.13" y="317.36" width="0.97" height="3.72" transform="translate(-423.92 435.9) rotate(-75.44)"/><polygon class="cls-1" points="10.96 24.04 11.37 23.17 14.18 22.54 14.19 22.53 12.13 21.56 12.54 20.68 15.91 22.27 15.49 23.15 12.68 23.77 12.67 23.78 14.73 24.76 14.32 25.63 10.96 24.04"/><polygon class="cls-1" points="14.87 18.82 15.36 19.2 16.01 18.36 16.66 18.86 16.01 19.7 17.17 20.59 16.58 21.36 13.63 19.08 14.94 17.39 15.58 17.89 14.87 18.82"/><path class="cls-1" d="M511.41,309.34A1.05,1.05,0,1,0,513,308a1.05,1.05,0,0,0-1.61,1.35m2.37-2a2.06,2.06,0,1,1-2.8-.14,2,2,0,0,1,2.8.14" transform="translate(-493.48 -292.48)"/><path class="cls-1" d="M515.81,306.09l.08,0c.28-.14.57-.35.39-.71s-.52-.26-.81-.11l-.08,0Zm2.82.87-1.08.55-1.45-.87h0l.64,1.28-.86.43L514.19,305l1.3-.65a1.11,1.11,0,0,1,1.66.44,1,1,0,0,1-.25,1.31Z" transform="translate(-493.48 -292.48)"/><polygon class="cls-1" points="26.03 11.21 26.2 11.81 27.24 11.51 27.47 12.3 26.42 12.6 26.59 13.21 27.7 12.9 27.92 13.69 25.88 14.26 24.87 10.69 26.91 10.11 27.13 10.9 26.03 11.21"/><path class="cls-1" d="M524.25,303a1,1,0,0,0-.66-.19c-.18,0-.4.15-.39.35s.29.28.46.32l.26.05c.53.1,1,.32,1,.92a1.3,1.3,0,0,1-.29,1,1.63,1.63,0,0,1-1,.44,2.23,2.23,0,0,1-1.34-.3l.34-.81a1.32,1.32,0,0,0,.89.3c.22,0,.45-.16.43-.42s-.41-.32-.63-.36c-.62-.12-1-.24-1.1-1a1.21,1.21,0,0,1,1.16-1.36,2.54,2.54,0,0,1,1.19.2Z" transform="translate(-493.48 -292.48)"/><polygon class="cls-1" points="34 13.38 33.03 13.3 33.27 10.41 32.47 10.35 32.54 9.53 35.1 9.74 35.03 10.56 34.23 10.49 34 13.38"/><path class="cls-1" d="M533.73,304.88h0l-.83.93.74.31Zm-1.37,1.51-.49.49-.94-.4,2.77-2.86,1,.41-.16,4-1-.4,0-.69Z" transform="translate(-493.48 -292.48)"/><polygon class="cls-1" points="42.94 15.86 43.9 16.51 43.44 17.18 41.68 15.99 43.77 12.91 44.57 13.46 42.94 15.86"/><polygon class="cls-1" points="45.32 17.78 46.17 18.57 45.61 19.17 44.06 17.71 46.6 15 47.31 15.67 45.32 17.78"/><rect class="cls-1" x="539.49" y="311" width="3.72" height="0.97" transform="translate(-568.65 118.96) rotate(-39.12)"/><path class="cls-1" d="M544,314.07h0l-1.23.22.39.71Zm-2,.35-.69.09-.5-.89,4-.57.51.92-2.56,3-.5-.9.44-.53Z" transform="translate(-493.48 -292.48)"/><polygon class="cls-1" points="53.07 24.32 53.32 25.26 51.58 27.56 51.58 27.57 53.78 26.98 54.03 27.91 50.44 28.87 50.19 27.94 51.93 25.64 51.93 25.63 49.73 26.22 49.48 25.29 53.07 24.32"/><path class="cls-1" d="M546.57,325.07a1.06,1.06,0,0,0,.39-.86,1,1,0,0,0-1.07-1,1,1,0,0,0-1,1,1.16,1.16,0,0,0,.42.82l-1.15,0a2.63,2.63,0,0,1-.2-.84,2.06,2.06,0,0,1,.5-1.42,1.83,1.83,0,0,1,1.39-.64,2,2,0,0,1,1.38.51,2,2,0,0,1,.64,1.39,2.26,2.26,0,0,1-.16.89Z" transform="translate(-493.48 -292.48)"/><polygon class="cls-1" points="53.25 35.15 52.63 35.06 52.47 36.13 51.66 36.01 51.82 34.93 51.19 34.83 51.01 35.97 50.2 35.84 50.53 33.75 54.2 34.32 53.88 36.41 53.07 36.29 53.25 35.15"/><path class="cls-2" d="M533.14,317.18a2.46,2.46,0,0,1-2.32,0,1.07,1.07,0,0,1-.57.14c-.13,0-.15-.07-.16-.15a2.31,2.31,0,0,1,.25-1.23,1.93,1.93,0,0,1,1.36-1,1.6,1.6,0,0,1,1.33.18,1.3,1.3,0,0,1,.11,2.12m3,9.89a6,6,0,0,0,.74.25,1.13,1.13,0,1,0-.69-1.71,2.51,2.51,0,0,1-2.4.58c-.21-.46.26-.72.71-1,.66-.43.8-1,.3-1.51a.93.93,0,0,0-.76-.25,1,1,0,0,0-.78.87,1.7,1.7,0,0,1-1.57,1.61c-1,.1-1.29.26-1.32-.34a4.53,4.53,0,0,1,.35-1.92,6.43,6.43,0,0,1,2.06-2.55l1.74-1.37c.57-.57,1.29-.88,1.66-1.66a1.69,1.69,0,0,0,.11-1.25,5,5,0,0,0,1-1.72c.14-.86-.08-1.8-.91-2l-.13-.05c-.84-.31-1.64-.09-2.47-.4-1.24-.48-1.43-1.53-3-1.71a2.63,2.63,0,0,0-2.49,1.52,3.27,3.27,0,0,1-.85,1,6.5,6.5,0,0,1-2.56.68,8.49,8.49,0,0,0-4.82,2.25c-.58.51-3.24,3.16-3.89,3.66-.8-.06-1.4-.49-1.09-1.55a1.73,1.73,0,0,1,2-1.43,1.1,1.1,0,0,0,1.36-.79.9.9,0,0,0-.57-1.13,1.08,1.08,0,0,0-1.39.55c-.09.08-.5.89-1.15.79a1.46,1.46,0,0,1-.06-1.44c.73-1.69,1.38-1.9,1.63-2.7a1.08,1.08,0,0,0-.66-1.38,1.14,1.14,0,0,0-1.45.75c-.21.54-.11,2-.54,3.27-.16.49-.55,1.79-1,1.17a1.69,1.69,0,0,1-.33-1.14,1,1,0,0,0-.54-1,1.09,1.09,0,0,0-1.42.6,1,1,0,0,0,.3,1.21c.43.39,1.13.05,1.42,1.05a3.25,3.25,0,0,1-.14,2.46c-.6,1.61-.62,3.36,0,4.15.72,1,1.47.86,1.47.86-.36,1.17-.54,2,1,3.21a5.58,5.58,0,0,0,2.1.84c-.52,1.41-1.76.66-2.24,2-.68,1.89,2.69,2.88,4.44,3.49,2.1.74,2.64.9,3.26,1.85a3,3,0,0,1,.66,1.68,1.17,1.17,0,0,0,.72.83,1.05,1.05,0,1,0,.77-1.95c-.62-.24-.7-.48-.59-.91.73-.52,2.69,0,3.63.84a1.17,1.17,0,0,0,1.88-.42,1,1,0,0,0-.69-1.3c-.59-.25-1.13.08-1.61.08a3.59,3.59,0,0,1-2.22-.82c0-.07.12-.77,1.19-.68a1,1,0,0,0,1.12-.9.77.77,0,0,0-.57-.81.91.91,0,0,0-1.06.3c-.28.27-.31.61-.9.91a2.16,2.16,0,0,1-1.43.3,2.25,2.25,0,0,1-1.26-.56,1,1,0,0,1-.16-.5c-.13,0,2.91-.6,3.65-1.59,1-1.31.06-2.14-1.2-2.7a9.23,9.23,0,0,0,3.24-2.51,4,4,0,0,1,.39,1.21l.15,1.45c.38,1.27,1.76.18,3,.34a2.84,2.84,0,0,1,2,.85,10,10,0,0,1,.83,1.29,1,1,0,0,0,.76.45,1,1,0,0,0,.4-1.9c-.85-.19-1.82-.77-1-1.28a3,3,0,0,1,2.06-.38" transform="translate(-493.48 -292.48)"/><path class="cls-2" d="M532.89,316.54a1.66,1.66,0,0,0-.22-.19,1.29,1.29,0,0,0-1.48.06c-.1,0-.09-.08-.08-.14a1.1,1.1,0,0,1,1.35-.79c.41.15.53.57.43,1.06" transform="translate(-493.48 -292.48)"/><path class="cls-3" d="M516.77,323.75c-.16.13-.24-.14-.24-.14,1.38-2,3.15-4.61,5.41-6a12.78,12.78,0,0,1,5-1.64,20.76,20.76,0,0,0-5.15,2.68c-2.08,1.45-4.19,4.45-5,5.12" transform="translate(-493.48 -292.48)"/><path class="cls-3" d="M523.27,328.46c.72.27,1.77-.53,2.6.28a2.87,2.87,0,0,0-1.5-1.19,7,7,0,0,0-3.86-.46c2.12.06,2,1.11,2.76,1.37" transform="translate(-493.48 -292.48)"/></svg>