<svg id="Capa_1" data-name="Capa 1" xmlns="http://www.w3.org/2000/svg" viewBox="0 0 107.62 137.69"><defs><style>.cls-1{fill:none;stroke:#fff;stroke-miterlimit:10;stroke-width:5px;}</style></defs><path class="cls-1" d="M-748.85-447a2.38,2.38,0,0,0-2.57,2,2.32,2.32,0,0,0,1.86,2.6,118,118,0,0,0,24.23,2.73c34.57,0,52.46-19.11,65.18-39.4l7.7,4.46a2.47,2.47,0,0,0,2.58-.08,2.29,2.29,0,0,0,1-2.3l-4.95-28.24A2.35,2.35,0,0,0-655-507a2.47,2.47,0,0,0-2.09-.1l-26.18,10.72a2.35,2.35,0,0,0-1.46,2.07,2.3,2.3,0,0,0,1.35,2.14l7.89,3.72c-21,44.79-71.2,41.53-73.35,41.37" transform="translate(753.94 509.74)"/><path class="cls-1" d="M-741.16-411.84c-4.63,0-8.25,4.36-8.25,9.94v17.4c0,5.58,3.62,9.94,8.25,9.94h11.28c4.63,0,8.25-4.36,8.25-9.94v-17.4c0-5.58-3.62-9.94-8.25-9.94Z" transform="translate(753.94 509.74)"/><path class="cls-1" d="M-707.06-428.17c-4.63,0-8.25,4.37-8.25,9.94v33.73c0,5.58,3.62,9.94,8.25,9.94h11.28c4.63,0,8.25-4.36,8.25-9.94v-33.73c0-5.57-3.62-9.94-8.25-9.94Z" transform="translate(753.94 509.74)"/><path class="cls-1" d="M-658.31-447.76h-11.28c-4.63,0-8.25,4.37-8.25,9.94v53.32c0,5.58,3.62,9.94,8.25,9.94h11.28c4.63,0,8.25-4.36,8.25-9.94v-53.32c0-5.57-3.62-9.94-8.25-9.94" transform="translate(753.94 509.74)"/></svg>