<svg id="Capa_1" data-name="Capa 1" xmlns="http://www.w3.org/2000/svg" viewBox="0 0 150.82 150.82"><defs><style>.cls-1{fill:#173853;}</style></defs><path class="cls-1" d="M-444.84,855.08a75.5,75.5,0,0,0-75.41,75.41,75.5,75.5,0,0,0,75.41,75.42,75.5,75.5,0,0,0,75.41-75.42A75.5,75.5,0,0,0-444.84,855.08ZM-484,964.33V912.55h17.21v51.78Zm8.61-58.85h-.12c-5.77,0-9.51-4-9.51-9s3.85-8.95,9.74-8.95,9.51,3.87,9.62,8.95S-469.36,905.48-475.36,905.48Zm70.67,58.85h-17.22v-27.7c0-7-2.49-11.71-8.71-11.71a9.43,9.43,0,0,0-8.84,6.3,11.88,11.88,0,0,0-.56,4.2v28.91h-17.21s.22-46.92,0-51.78H-440v7.33c2.28-3.53,6.38-8.55,15.51-8.55,11.33,0,19.82,7.41,19.82,23.31Z" transform="translate(520.25 -855.08)"/></svg>