<svg id="Capa_1" data-name="Capa 1" xmlns="http://www.w3.org/2000/svg" viewBox="0 0 550.4 153.37"><defs><style>.cls-1{fill:#173853;}</style></defs><path class="cls-1" d="M-1877.7,212.36a14.6,14.6,0,0,1,2.34-.2,15.39,15.39,0,0,1,2.38.2v11.49a15.48,15.48,0,0,1-3.54.83,28.57,28.57,0,0,1-3.2.21,13.16,13.16,0,0,1-5-.89,9.73,9.73,0,0,1-3.58-2.51,10.68,10.68,0,0,1-2.15-3.82,15.56,15.56,0,0,1-.71-4.82,15.39,15.39,0,0,1,.74-4.84,11.48,11.48,0,0,1,2.17-3.86,9.89,9.89,0,0,1,3.48-2.54,11.71,11.71,0,0,1,4.71-.91,20.36,20.36,0,0,1,2.91.2,11.64,11.64,0,0,1,2.82.81,7,7,0,0,1-.39,1.91c-.22.62-.46,1.24-.72,1.87a14.72,14.72,0,0,0-2-.56,12.39,12.39,0,0,0-2.08-.16,5.85,5.85,0,0,0-4.8,2c-1.12,1.35-1.68,3.37-1.68,6s.55,4.66,1.66,6a6,6,0,0,0,4.88,2,7.57,7.57,0,0,0,1-.06l.8-.13Z" transform="translate(2076.83 -71.52)"/><path class="cls-1" d="M-1863.31,201.09H-1850a10.18,10.18,0,0,1,.2,2,10.41,10.41,0,0,1-.2,2h-8.53v5.08h6.77a11,11,0,0,1,.2,2,10.79,10.79,0,0,1-.2,2.05h-6.77v6.19h8.76a10.07,10.07,0,0,1,.19,2,10.42,10.42,0,0,1-.19,2.05h-13.51Z" transform="translate(2076.83 -71.52)"/><path class="cls-1" d="M-1840.52,201.09a10.07,10.07,0,0,1,1.92-.19,11,11,0,0,1,2,.19l9,14.92V201.09a13.67,13.67,0,0,1,2.25-.19,9.63,9.63,0,0,1,2,.19V224.5a10.49,10.49,0,0,1-1.89.2,11.26,11.26,0,0,1-2-.2l-9.11-14.88V224.5a11.54,11.54,0,0,1-2.12.2,11,11,0,0,1-2.08-.2Z" transform="translate(2076.83 -71.52)"/><path class="cls-1" d="M-1813.27,201.09H-1800a10.18,10.18,0,0,1,.2,2,10.41,10.41,0,0,1-.2,2h-8.53v5.08h6.78a10.94,10.94,0,0,1,.19,2,10.79,10.79,0,0,1-.19,2.05h-6.78v6.19h8.76a10.07,10.07,0,0,1,.2,2,10.41,10.41,0,0,1-.2,2.05h-13.51Z" transform="translate(2076.83 -71.52)"/><path class="cls-1" d="M-1785.92,205.13h-5.83a10.42,10.42,0,0,1-.19-2,10.17,10.17,0,0,1,.19-2h16.44a10.18,10.18,0,0,1,.2,2,10.41,10.41,0,0,1-.2,2h-5.83V224.5c-.39.05-.78.08-1.17.12s-.77,0-1.14,0-.76,0-1.19,0a11.33,11.33,0,0,1-1.28-.13Z" transform="translate(2076.83 -71.52)"/><path class="cls-1" d="M-1766.52,201.09a15,15,0,0,1,2.38-.19,15.52,15.52,0,0,1,2.41.19V224.5a15.39,15.39,0,0,1-2.38.2,15.17,15.17,0,0,1-2.41-.2Z" transform="translate(2076.83 -71.52)"/><path class="cls-1" d="M-1736.2,220.08a13.54,13.54,0,0,1,.7,1.87,13,13,0,0,1,.4,1.93,15,15,0,0,1-3,.82,20.46,20.46,0,0,1-2.92.19,12.34,12.34,0,0,1-4.85-.89,9.68,9.68,0,0,1-3.5-2.51,10.8,10.8,0,0,1-2.13-3.82,15.56,15.56,0,0,1-.72-4.82,15.11,15.11,0,0,1,.75-4.84,11.31,11.31,0,0,1,2.17-3.86,9.8,9.8,0,0,1,3.48-2.54,11.71,11.71,0,0,1,4.71-.91,19.73,19.73,0,0,1,2.88.2,12.67,12.67,0,0,1,2.85.81,7.81,7.81,0,0,1-.39,1.91c-.22.62-.46,1.24-.72,1.87a14.72,14.72,0,0,0-2-.56,12.39,12.39,0,0,0-2.08-.16,5.87,5.87,0,0,0-4.81,2c-1.11,1.35-1.67,3.37-1.67,6q0,7.93,6.74,7.94a11.93,11.93,0,0,0,2.11-.16A14.23,14.23,0,0,0-1736.2,220.08Z" transform="translate(2076.83 -71.52)"/><path class="cls-1" d="M-1721.78,213.66a13.65,13.65,0,0,1-2-.93,5.92,5.92,0,0,1-1.5-1.2,5.12,5.12,0,0,1-1-1.68,7.32,7.32,0,0,1-.34-2.34,7.06,7.06,0,0,1,.57-2.93,5.91,5.91,0,0,1,1.61-2.14,7.12,7.12,0,0,1,2.51-1.3,11.54,11.54,0,0,1,3.29-.44,15.34,15.34,0,0,1,3.11.3,22.58,22.58,0,0,1,3,.84,11.4,11.4,0,0,1-1,3.71l-1-.39a8.51,8.51,0,0,0-1.08-.32,10.36,10.36,0,0,0-1.28-.21,13.21,13.21,0,0,0-1.63-.09,7.17,7.17,0,0,0-1.12.1,3.31,3.31,0,0,0-1,.36,2.06,2.06,0,0,0-.75.77,2.62,2.62,0,0,0-.29,1.31,2.3,2.3,0,0,0,.23,1.1,2.1,2.1,0,0,0,.62.74,3.79,3.79,0,0,0,.87.52c.33.15.66.28,1,.41l2,.75a24.18,24.18,0,0,1,2.25,1,6.21,6.21,0,0,1,1.71,1.29,5.3,5.3,0,0,1,1.09,1.85,8,8,0,0,1,.39,2.69,7.48,7.48,0,0,1-.6,3,6.47,6.47,0,0,1-1.74,2.34,8.28,8.28,0,0,1-2.82,1.53,12.27,12.27,0,0,1-3.86.55q-1.07,0-1.92-.06a13.33,13.33,0,0,1-1.61-.21c-.51-.1-1-.23-1.51-.38s-1-.33-1.57-.55a15,15,0,0,1,.36-2c.18-.68.38-1.37.62-2.07a16.53,16.53,0,0,0,2.57.83,11.19,11.19,0,0,0,2.57.28,5.87,5.87,0,0,0,3.23-.77,2.58,2.58,0,0,0,1.17-2.32,2.7,2.7,0,0,0-.28-1.31,2.9,2.9,0,0,0-.71-.88,5.2,5.2,0,0,0-1-.6c-.36-.16-.74-.32-1.14-.47Z" transform="translate(2076.83 -71.52)"/><path class="cls-1" d="M-2007.87,126A22.76,22.76,0,0,0-2001,119a26.18,26.18,0,0,0,3.32-13.5c0-8.33-2.83-15.05-8.44-20-5.49-4.43-13.45-6.69-23.66-6.69h-35.44a11,11,0,0,0-8.18,3.48,11.69,11.69,0,0,0-3.38,8.43V180a1.45,1.45,0,0,0,1.45,1.46h44.15c11.53,0,20.63-2.73,27.09-8.18,6.3-5.67,9.49-13.64,9.49-23.7,0-6.24-1.31-11.39-3.92-15.32A26.16,26.16,0,0,0-2007.87,126Zm-15.8-10.91c-2,1.53-5.29,2.32-9.82,2.32h-21.34V99.19h21.06c6.32,0,9,1.09,10.1,2,1.89,1.45,2.81,3.71,2.81,6.93s-.92,5.46-2.81,6.91m-31.16,22.36h21.91c5.45,0,9.32.87,11.48,2.58s3.38,4.78,3.38,9-1.08,7-3.34,8.64c-2.55,1.92-6.32,2.9-11.24,2.9h-22.19Z" transform="translate(2076.83 -71.52)"/><path class="cls-1" d="M-1975.75,75.43a38.25,38.25,0,0,0-4.39,4.29,39.51,39.51,0,0,0-3.93,5.34,29.71,29.71,0,0,0-2.86,6,19.15,19.15,0,0,0-1.09,6.29v84h19.87V71.52a7.69,7.69,0,0,0-3.38,1,24,24,0,0,0-4.22,2.86" transform="translate(2076.83 -71.52)"/><path class="cls-1" d="M-1534.44,119.41q-8.08-10-22.34-10a27,27,0,0,0-12.89,3.15,27.47,27.47,0,0,0-2.74,1.74c-1,.7-2,1.49-2.94,2.35s-1.94,1.81-2.87,2.8a24.35,24.35,0,0,0-2.41,3l-.09-3.69v-9.32h-19.86V221.88a7.83,7.83,0,0,0,3.38-1A24.79,24.79,0,0,0-1593,218a37.77,37.77,0,0,0,4.38-4.32,39.25,39.25,0,0,0,3.94-5.37,30,30,0,0,0,2.86-6.06,19.35,19.35,0,0,0,1.08-6.32v-30.6a28.49,28.49,0,0,0,2.38,3.54c.91,1.19,1.87,2.31,2.84,3.35s2,2,2.91,2.83a28.63,28.63,0,0,0,2.73,2.09A23.92,23.92,0,0,0-1557,181h1.21a34.91,34.91,0,0,0,12-2.51,24.15,24.15,0,0,0,9.31-7.07q8-9.42,8-25.13,0-17-8-26.88m-17.61,40a13.18,13.18,0,0,1-10.87,5.06,12.62,12.62,0,0,1-11-5.59,21.45,21.45,0,0,1-3-5.84,30.48,30.48,0,0,1-1.09-8.56q0-8.1,4.37-13.35a13.91,13.91,0,0,1,10.89-5.14,12.65,12.65,0,0,1,10.86,5.5q4,5.22,4,14.39c0,5.64-1.33,10.15-4,13.53" transform="translate(2076.83 -71.52)"/><path class="cls-1" d="M-1642.24,181.42a41.77,41.77,0,0,1-15.89-2.76,30,30,0,0,1-11.18-7.68,32.68,32.68,0,0,1-6.68-11.53,44,44,0,0,1-2.25-14.28,45.24,45.24,0,0,1,2.25-14.42,32.47,32.47,0,0,1,6.68-11.66,30.61,30.61,0,0,1,11.18-7.75,40.79,40.79,0,0,1,15.89-2.83,41.41,41.41,0,0,1,16,2.83,31.25,31.25,0,0,1,11.32,7.75,31.2,31.2,0,0,1,6.68,11.66,46.67,46.67,0,0,1,2.18,14.42,45.37,45.37,0,0,1-2.18,14.28,31.38,31.38,0,0,1-6.68,11.53,30.62,30.62,0,0,1-11.32,7.68A42.41,42.41,0,0,1-1642.24,181.42Zm0-14.55q8.13,0,11.69-5.6t3.55-16.1q0-10.51-3.55-16.11t-11.69-5.59q-8,0-11.54,5.59t-3.56,16.11q0,10.52,3.56,16.1T-1642.24,166.87Z" transform="translate(2076.83 -71.52)"/><path class="cls-1" d="M-1914,109.52v45.24a11.54,11.54,0,0,1-11.6,11.48h0a11.54,11.54,0,0,1-11.6-11.48V109.52h-20.32v51.29a20.71,20.71,0,0,0,20.82,20.61h22.19a20.71,20.71,0,0,0,20.82-20.61V109.52Z" transform="translate(2076.83 -71.52)"/><path class="cls-1" d="M-1822.5,150.13v-18c0-13.12-12.43-23.34-23.44-23.34h-14c-11,0-20.2,10.55-24,23.34a48.36,48.36,0,0,0-1.69,13,44,44,0,0,0,2.38,14.22,30.72,30.72,0,0,0,6.53,11.65,29.76,29.76,0,0,0,11.42,7.65,46,46,0,0,0,16.8,2.75,65.4,65.4,0,0,0,23.94-4.13c-.09-2.94,0-5.72,0-8.07v-7.88a106.88,106.88,0,0,1-13,3.61,51.53,51.53,0,0,1-9.45.9q-8.43,0-13.6-3.72c-3.45-2.49-5.35-6.48-5.72-12h43.82Zm-44.29-13.64q.7-7,4.37-10.89t10.72-3.86q6.2,0,9.66,4.06t3.73,10.69Z" transform="translate(2076.83 -71.52)"/><path class="cls-1" d="M-1805,79.86a10.69,10.69,0,0,0-8,3.44,11.68,11.68,0,0,0-3.3,8.36V180a1.43,1.43,0,0,0,1.42,1.46H-1783c9.06,0,15.93-.69,20.41-2.07a38.31,38.31,0,0,0,13.37-7.12c4.93-4,9-9.76,12-17.27a71.39,71.39,0,0,0,3.93-24.32c0-16.73-3.72-29.6-11.06-38.27-7.39-8.3-18.72-12.51-33.42-12.51Zm49.08,50.78c0,11-1.91,18.8-5.69,23.11-3.9,4.62-10.24,7-18.7,7h-14.23V100h16.7c7.77,0,13,2.36,16.45,7.18,3.63,4.89,5.47,12.78,5.47,23.47" transform="translate(2076.83 -71.52)"/><path class="cls-1" d="M-1681.48,108.8h-16.43c-15.78,0-28.58,13.62-28.58,30.41v42.21h20.4V144.89c0-9,6.85-16.27,15.3-16.27h9.31Z" transform="translate(2076.83 -71.52)"/></svg>