<svg id="Capa_1" data-name="Capa 1" xmlns="http://www.w3.org/2000/svg" viewBox="0 0 76.44 48.4"><defs><style>.cls-1{fill:none;stroke:#fff;stroke-miterlimit:10;stroke-width:3.01px;}</style></defs><path class="cls-1" d="M137.84,557.63,127,551.08a7.16,7.16,0,0,0-9.86,2.34h0A4.09,4.09,0,0,0,118.5,559l9.11,5.63,12.08,7.44c9.26,5.71,22,5.89,31,1.36A34,34,0,0,1,190,570.15v-21.5l-8.18-4.53c-9.13-5.1-20.8,3.57-20.8,3.57-4.45,2.93-8.2,4.81-13.37,5.8-1.93.37-4.3.34-6.06,1.12a7.44,7.44,0,0,0-4.52,5,4.78,4.78,0,0,0,1.8,4.77c2,1.32,4.91.86,7.1.58a66,66,0,0,0,15.74-4.17l.19-.08" transform="translate(-115.05 -529.76)"/><path class="cls-1" d="M125.7,551.56c-.13-2.74,2.08-3.63,4-4.84a25.53,25.53,0,0,0,6.27-5.5,5.35,5.35,0,0,1,1-1,6.56,6.56,0,0,1,1.94-.72c3-.91,5.24-3.47,7.69-5.5s5.87-3.62,8.72-2.21c1.36.67,2.46,2,4,2.15.79.09,1.6-.15,2.39,0,2.72.43,3.34,4.67,6,5.34,1.14.28,2.45-.18,3.47.41.72.42,1.09,1.25,1.72,1.79,1.2,1,3,.71,4.53.72s3.51.8,3.47,2.37" transform="translate(-115.05 -529.76)"/></svg>