<svg id="Capa_1" data-name="Capa 1" xmlns="http://www.w3.org/2000/svg" viewBox="0 0 97.12 97.05"><defs><style>.cls-1{fill:#173853;}</style></defs><path class="cls-1" d="M368.89,886.2c7.63,0,15.27-.25,22.88.06a26.23,26.23,0,0,1,25.58,26.09q.34,22.32,0,44.65A25.78,25.78,0,0,1,392,982.75c-14.73.37-29.48.48-44.2.08-16.57-.44-27-11.33-27.29-27.92q-.32-20.52,0-41.06c.21-14,7.92-24,20.59-26.88a43.29,43.29,0,0,1,8.89-.86c6.28-.13,12.57,0,18.85,0Zm-39.51,48.28h0v20.65c0,.23,0,.45,0,.68.25,8.66,4.84,15.12,12.64,17.34a29.63,29.63,0,0,0,7.74,1c12.05.1,24.1.07,36.15,0a64.3,64.3,0,0,0,7.6-.43,16.35,16.35,0,0,0,14.36-12.63,37.16,37.16,0,0,0,1.06-8c.1-13,.15-26,0-39.07-.13-11.78-7.58-19.14-19.36-19.23-13.62-.1-27.24-.13-40.86,0-12.15.12-19.31,7.49-19.36,19.63C329.35,921.16,329.38,927.82,329.38,934.48Z" transform="translate(-320.4 -886.04)"/><path class="cls-1" d="M344.1,934.55a24.84,24.84,0,0,1,24.89-25,24.95,24.95,0,1,1,0,49.89A24.71,24.71,0,0,1,344.1,934.55Zm41,.05a16.06,16.06,0,0,0-16-16.17,16.1,16.1,0,1,0-.15,32.19A16.06,16.06,0,0,0,385.09,934.6Z" transform="translate(-320.4 -886.04)"/><path class="cls-1" d="M389.51,908.6a5.49,5.49,0,0,1,5.57-5.5,5.62,5.62,0,0,1,5.59,5.54,5.53,5.53,0,0,1-5.75,5.56A5.38,5.38,0,0,1,389.51,908.6Z" transform="translate(-320.4 -886.04)"/></svg>