<svg id="Capa_1" data-name="Capa 1" xmlns="http://www.w3.org/2000/svg" viewBox="0 0 77.56 77.56"><defs><style>.cls-1{fill:#91c8dd;}.cls-2{fill:#fff;}</style></defs><path class="cls-1" d="M557.88,380.58A38.78,38.78,0,1,0,519.1,341.8a38.78,38.78,0,0,0,38.78,38.78" transform="translate(-519.1 -303.02)"/><path class="cls-2" d="M566.83,328.06a.68.68,0,0,0-.34-.89l-1.56-.73,5.54-2.27,1.06,6.09-1.58-.91a.68.68,0,0,0-.54-.08.7.7,0,0,0-.44.32c-3.84,6.3-8.86,11.89-19.09,11.7,5.52-1.14,13.07-4.34,17-13.23m-23.51,12.43a.72.72,0,0,0-.77.59.69.69,0,0,0,.56.77,35.21,35.21,0,0,0,7.24.82c10.33,0,15.68-5.71,19.48-11.78l2.3,1.33a.74.74,0,0,0,.77,0,.68.68,0,0,0,.31-.69l-1.48-8.44a.7.7,0,0,0-.36-.49.77.77,0,0,0-.63,0l-7.82,3.21a.68.68,0,0,0-.44.61.67.67,0,0,0,.4.64l2.36,1.12C559,341.51,544,340.54,543.32,340.49" transform="translate(-519.1 -303.02)"/><path class="cls-2" d="M550,352.93v5.2c0,.84-.48,1.59-1,1.59h-3.37c-.55,0-1-.75-1-1.59v-5.2c0-.85.49-1.59,1-1.59H549c.55,0,1,.74,1,1.59m-4.4-3a2.73,2.73,0,0,0-2.47,3v5.2a2.73,2.73,0,0,0,2.47,3H549a2.73,2.73,0,0,0,2.47-3v-5.2a2.73,2.73,0,0,0-2.47-3Z" transform="translate(-519.1 -303.02)"/><path class="cls-2" d="M560.22,347.41v10.08c0,.84-.49,1.58-1,1.58h-3.37c-.55,0-1-.74-1-1.58V347.41c0-.85.48-1.59,1-1.59h3.37c.55,0,1,.74,1,1.59m-4.41-3a2.73,2.73,0,0,0-2.47,3v10.08a2.73,2.73,0,0,0,2.47,3h3.37a2.73,2.73,0,0,0,2.47-3V347.41a2.72,2.72,0,0,0-2.47-3Z" transform="translate(-519.1 -303.02)"/><path class="cls-2" d="M571.41,357.49c0,.84-.48,1.58-1,1.58H567c-.55,0-1-.74-1-1.58V341.55c0-.84.48-1.58,1-1.58h3.37c.55,0,1,.74,1,1.58Zm-1-18.91H567a2.73,2.73,0,0,0-2.47,3v15.94a2.73,2.73,0,0,0,2.47,3h3.37a2.73,2.73,0,0,0,2.47-3V341.55a2.73,2.73,0,0,0-2.47-3" transform="translate(-519.1 -303.02)"/></svg>