<!-- Generator: Adobe Illustrator 25.2.3, SVG Export Plug-In  -->
<svg version="1.1" xmlns="http://www.w3.org/2000/svg" xmlns:xlink="http://www.w3.org/1999/xlink" x="0px" y="0px"
	 width="97.184px" height="97.047px" viewBox="0 0 97.184 97.047"
	 style="overflow:visible;enable-background:new 0 0 97.184 97.047;" xml:space="preserve">
<style type="text/css">
	.st0{fill:#FFFFFF;}
</style>
<defs>
</defs>
<g id="_x39_lI7XG.tif_1_">
	<g>
		<path class="st0" d="M34.446,64.632c0,10.451,0,20.901,0,31.352c0,1.061,0.002,1.062,1.076,1.062c5.957,0.001,11.915,0,17.872,0
			c1.124,0,1.124-0.001,1.124-1.123c0-10.19,0-20.38,0-30.57c0-1.866,0.018-3.729,0.258-5.585c0.244-1.879,0.64-3.717,1.42-5.453
			c1.298-2.888,3.464-4.77,6.544-5.56c1.987-0.51,4.005-0.61,6.03-0.301c3.099,0.473,5.374,2.087,6.704,4.964
			c0.457,0.988,0.772,2.02,1.01,3.081c0.566,2.523,0.659,5.094,0.667,7.658c0.036,10.551,0.018,21.102,0.02,31.653
			c0,1.235,0.001,1.235,1.207,1.235c5.857,0,11.714,0,17.572,0c1.231,0,1.231-0.001,1.231-1.214c0-11.694,0.004-23.389-0.004-35.083
			c-0.001-1.624-0.015-3.247-0.112-4.871c-0.147-2.447-0.416-4.874-0.884-7.28c-0.547-2.812-1.4-5.52-2.777-8.045
			c-1.206-2.213-2.774-4.118-4.792-5.643c-2.264-1.71-4.814-2.787-7.558-3.435c-1.84-0.435-3.706-0.652-5.593-0.775
			c-3.813-0.25-7.535,0.11-11.111,1.524c-4.233,1.674-7.638,4.359-10.011,8.286c-0.073,0.12-0.148,0.238-0.228,0.353
			c-0.061,0.087-0.144,0.14-0.255,0.103c-0.086-0.029-0.125-0.108-0.132-0.186c-0.018-0.199-0.03-0.4-0.03-0.6
			c-0.002-2.307-0.001-4.614-0.002-6.92c-0.001-1.044-0.005-1.049-1.03-1.049c-5.737-0.001-11.474-0.001-17.21,0
			c-0.18,0-0.361,0.003-0.541,0.012c-0.286,0.014-0.443,0.166-0.453,0.454c-0.009,0.24-0.012,0.481-0.012,0.722
			C34.446,43.811,34.446,54.222,34.446,64.632z M21.693,64.65c0-10.389,0-20.778,0-31.167c0-0.221,0.006-0.442-0.005-0.662
			c-0.024-0.496-0.111-0.579-0.615-0.605c-0.12-0.006-0.241-0.004-0.361-0.004c-6.037,0-12.074-0.001-18.111,0.001
			c-0.985,0-0.997,0.014-0.997,1.021c-0.001,20.938-0.001,41.877,0,62.815c0,0.995,0.003,0.997,1.013,0.997
			c5.977,0.001,11.953,0.001,17.93,0c1.145,0,1.146-0.001,1.146-1.17C21.693,85.468,21.693,75.059,21.693,64.65z M23.275,11.664
			C23.415,5.541,18.337-0.001,11.635,0C5.094,0.001,0.003,5.405,0,11.637c-0.004,6.412,5.294,11.639,11.609,11.669
			C17.989,23.336,23.395,18.026,23.275,11.664z"/>
	</g>
</g>
</svg>