<svg id="Capa_1" data-name="Capa 1" xmlns="http://www.w3.org/2000/svg" viewBox="0 0 125.65 118.56"><defs><style>.cls-1{fill:none;stroke:#fff;stroke-miterlimit:10;stroke-width:4.95px;}</style></defs><path class="cls-1" d="M-312.73-489.23s-55.88-8.91-47.06,47.06C-303.82-433.36-312.73-489.23-312.73-489.23Z" transform="translate(423.56 492.23)"/><line class="cls-1" x1="96.23" y1="17.6" x2="63.77" y2="50.06"/><path class="cls-1" d="M-408.74-489.23s55.88-8.91,47.06,47.06C-417.65-433.36-408.74-489.23-408.74-489.23Z" transform="translate(423.56 492.23)"/><line class="cls-1" x1="31.31" y1="19.49" x2="61.88" y2="50.06"/><path class="cls-1" d="M-358.56-419.25s-.53-12.3-.89-23.92H-362c-.44,14.07-.33,26-.33,26Z" transform="translate(423.56 492.23)"/><path class="cls-1" d="M-386.09-407.42l-17.8-10.77a11.78,11.78,0,0,0-16.2,3.85h0a6.72,6.72,0,0,0,2.2,9.24l15,9.26,19.85,12.23c15.22,9.38,36.1,9.68,51,2.23a55.7,55.7,0,0,1,31.68-5.45v-35.34l-13.45-7.45c-15-8.39-34.18,5.86-34.18,5.86-7.3,4.82-13.47,7.92-22,9.54-3.16.6-7.06.56-10,1.84-3.6,1.6-6.51,4.32-7.42,8.26a7.84,7.84,0,0,0,2.95,7.83c3.23,2.18,8.08,1.41,11.67,1a107.4,107.4,0,0,0,25.87-6.85l.32-.13" transform="translate(423.56 492.23)"/><path class="cls-1" d="M-379.16-412.69-398.48-424a10.4,10.4,0,0,0-14.32,3.4l-.53,1.14" transform="translate(423.56 492.23)"/><path class="cls-1" d="M-368-414.6l-22.11-13a10.4,10.4,0,0,0-13.37,2.1" transform="translate(423.56 492.23)"/></svg>