<!-- Generator: Adobe Illustrator 25.2.3, SVG Export Plug-In  -->
<svg version="1.1" xmlns="http://www.w3.org/2000/svg" xmlns:xlink="http://www.w3.org/1999/xlink" x="0px" y="0px"
	 width="550.837px" height="150.359px" viewBox="0 0 550.837 150.359"
	 style="overflow:visible;enable-background:new 0 0 550.837 150.359;" xml:space="preserve">
<style type="text/css">
	.st0{fill:#FFFFFF;}
</style>
<defs>
</defs>
<g>
	<g>
		<g>
			<path class="st0" d="M69.397,54.455c2.807-1.854,5.098-4.174,6.827-6.934c2.189-3.695,3.314-8.236,3.314-13.501
				c0-8.328-2.826-15.044-8.435-19.989c-5.489-4.434-13.45-6.693-23.665-6.693H12.004c-3.188,0-5.944,1.176-8.184,3.481
				c-2.235,2.301-3.379,5.145-3.379,8.435v89.182c0,0.813,0.641,1.469,1.445,1.469h44.152c11.531,0,20.631-2.733,27.095-8.18
				c6.297-5.67,9.486-13.641,9.486-23.703c0-6.246-1.311-11.396-3.913-15.318C76.41,59.335,73.291,56.569,69.397,54.455z
				 M53.604,43.537c-1.989,1.534-5.294,2.319-9.82,2.319H22.442V27.675H43.5c6.316,0,8.965,1.088,10.104,2.022
				c1.887,1.455,2.802,3.718,2.802,6.93C56.407,39.824,55.491,42.092,53.604,43.537 M22.442,65.902h21.909
				c5.447,0,9.323,0.874,11.48,2.575c2.273,1.854,3.383,4.782,3.383,8.97c0,4.169-1.088,6.995-3.346,8.649
				c-2.547,1.919-6.321,2.9-11.238,2.9H22.442V65.902z"/>
		</g>
		<g>
			<path class="st0" d="M101.522,3.909c-1.48,1.211-2.938,2.653-4.388,4.289c-1.45,1.655-2.756,3.428-3.938,5.341
				c-1.177,1.913-2.133,3.922-2.856,6.035c-0.727,2.108-1.086,4.208-1.086,6.284v84.046h19.865V0c-0.913,0-2.038,0.354-3.379,1.047
				C104.404,1.737,103.002,2.693,101.522,3.909"/>
		</g>
		<g>
			<path class="st0" d="M542.834,47.89c-5.396-6.689-12.845-10.04-22.34-10.04c-4.657,0-8.955,1.053-12.895,3.151
				c-0.839,0.461-1.755,1.044-2.739,1.742c-0.975,0.698-1.963,1.491-2.943,2.353c-0.979,0.871-1.941,1.801-2.866,2.795
				c-0.934,0.985-1.732,1.979-2.412,2.968l-0.085-3.689v-9.319H476.69v112.508c0.913,0,2.038-0.356,3.379-1.053
				c1.337-0.693,2.739-1.655,4.219-2.877c1.48-1.217,2.938-2.667,4.388-4.313c1.45-1.664,2.756-3.447,3.938-5.371
				c1.177-1.924,2.133-3.944,2.856-6.069c0.727-2.12,1.086-4.231,1.086-6.319V96.334v-2.575c0.668,1.18,1.454,2.368,2.377,3.546
				c0.914,1.189,1.865,2.303,2.835,3.347c0.97,1.033,1.951,1.986,2.919,2.824c0.977,0.839,1.888,1.542,2.724,2.098
				c3.925,2.535,8.226,3.839,12.902,3.901h1.212c4.493-0.178,8.479-1.055,11.993-2.505c3.514-1.459,6.62-3.825,9.318-7.072
				c5.323-6.283,8.003-14.663,8.003-25.127C550.837,63.419,548.158,54.465,542.834,47.89 M525.224,87.858
				c-2.702,3.378-6.325,5.065-10.878,5.065c-4.775,0-8.452-1.865-11.032-5.59c-1.351-1.865-2.362-3.807-3.042-5.845
				c-0.725-2.453-1.093-5.293-1.093-8.553c0-5.407,1.455-9.857,4.376-13.35c2.984-3.438,6.611-5.148,10.887-5.148
				c4.602,0,8.216,1.828,10.859,5.503c2.643,3.479,3.954,8.28,3.954,14.389C529.254,79.975,527.917,84.479,525.224,87.858"/>
		</g>
		<g>
			<path class="st0" d="M435.031,109.905c-6.097,0-11.395-0.922-15.895-2.763c-4.501-1.84-8.228-4.402-11.178-7.683
				c-2.953-3.279-5.179-7.12-6.678-11.524c-1.501-4.401-2.25-9.166-2.25-14.287c0-5.122,0.749-9.928,2.25-14.422
				c1.499-4.492,3.725-8.378,6.678-11.659c2.95-3.279,6.677-5.863,11.178-7.75c4.5-1.887,9.798-2.83,15.895-2.83
				c6.098,0,11.418,0.944,15.968,2.83c4.548,1.887,8.322,4.471,11.323,7.75c2.998,3.281,5.226,7.167,6.678,11.659
				c1.451,4.494,2.177,9.3,2.177,14.422c0,5.122-0.726,9.886-2.177,14.287c-1.452,4.404-3.68,8.245-6.678,11.524
				c-3,3.281-6.775,5.843-11.323,7.683C446.449,108.983,441.128,109.905,435.031,109.905z M435.031,95.348
				c5.419,0,9.313-1.864,11.686-5.593c2.371-3.728,3.557-9.098,3.557-16.107c0-7.009-1.186-12.377-3.557-16.107
				c-2.373-3.728-6.267-5.593-11.686-5.593c-5.323,0-9.17,1.866-11.54,5.593c-2.373,3.73-3.557,9.098-3.557,16.107
				c0,7.009,1.184,12.379,3.557,16.107C425.86,93.484,429.708,95.348,435.031,95.348z"/>
		</g>
		<g>
			<path class="st0" d="M163.217,37.997v45.245c0,6.341-5.193,11.482-11.599,11.482h0c-6.406,0-11.599-5.14-11.599-11.482V37.997
				h-20.317v51.296c0,11.383,9.322,20.611,20.822,20.611h22.188c11.499,0,20.822-9.228,20.822-20.611V37.997H163.217z"/>
		</g>
		<g>
			<path class="st0" d="M254.771,78.613l0-17.99c0-13.118-12.431-23.339-23.438-23.339h-13.96c-10.971,0-20.2,10.542-24.039,23.339
				c-1.303,4.343-1.668,9.202-1.69,13.009c-0.039,6.766,1.596,11.723,2.375,14.217c1.405,4.504,3.581,8.387,6.529,11.648
				c2.945,3.263,6.754,5.813,11.426,7.651c4.67,1.837,10.27,2.757,16.799,2.757c8.886,0,16.867-1.378,23.94-4.135
				c-0.091-2.94,0-5.716,0-8.072c0-2.356,0-5.874,0-7.881c-2.904,1.103-9.773,3.019-12.99,3.616
				c-3.22,0.599-6.372,0.896-9.454,0.896c-5.624,0-10.157-1.24-13.603-3.722c-3.448-2.481-5.352-6.479-5.713-11.993h42.136H254.771z
				 M210.483,64.966c0.469-4.687,1.926-8.316,4.371-10.89c2.443-2.572,6.015-3.86,10.716-3.86c4.136,0,7.354,1.357,9.659,4.066
				c2.302,2.712,3.547,6.272,3.736,10.683H210.483z"/>
		</g>
		<g>
			<path class="st0" d="M272.275,8.337c-3.112,0-5.804,1.164-7.989,3.447c-2.181,2.278-3.296,5.094-3.296,8.352v88.305
				c0,0.805,0.626,1.463,1.424,1.463h31.808c9.059,0,15.933-0.695,20.409-2.071c4.725-1.371,9.223-3.774,13.376-7.119
				c4.929-3.967,8.951-9.765,11.979-17.275c2.607-7.206,3.922-15.384,3.922-24.321c0-16.728-3.714-29.594-11.059-38.264
				c-7.386-8.302-18.721-12.517-33.417-12.517S275.387,8.337,272.275,8.337z M321.354,59.119c0,11.044-1.909,18.803-5.69,23.115
				c-3.904,4.62-10.243,6.958-18.699,6.958c-8.457,0-14.233,0-14.233,0V28.475c0,0,8.934,0,16.7,0s13.031,2.352,16.45,7.179
				C319.509,40.541,321.354,48.429,321.354,59.119"/>
		</g>
		<g>
			<path class="st0" d="M395.793,37.284h-16.431c-15.786,0-28.583,13.613-28.583,30.405v42.215h20.405V73.374
				c0-8.986,6.848-16.27,15.295-16.27h9.313V37.284z"/>
		</g>
	</g>
	<g>
		<path class="st0" d="M5.452,131.541c-0.744-0.285-1.412-0.597-2.003-0.937c-0.592-0.339-1.096-0.744-1.511-1.215
			c-0.417-0.471-0.739-1.035-0.97-1.691c-0.229-0.657-0.345-1.445-0.345-2.365c0-1.116,0.191-2.102,0.575-2.956
			c0.383-0.854,0.925-1.57,1.626-2.151c0.7-0.579,1.543-1.018,2.528-1.313c0.985-0.295,2.091-0.443,3.317-0.443
			c1.117,0,2.162,0.099,3.137,0.296c0.974,0.197,1.998,0.481,3.071,0.854c-0.132,1.271-0.482,2.519-1.052,3.744
			c-0.328-0.131-0.662-0.263-1.001-0.394c-0.34-0.132-0.701-0.241-1.084-0.329c-0.384-0.087-0.816-0.158-1.298-0.213
			s-1.029-0.082-1.642-0.082c-0.373,0-0.751,0.032-1.134,0.099c-0.383,0.065-0.728,0.186-1.034,0.361
			c-0.307,0.175-0.559,0.433-0.756,0.771c-0.196,0.34-0.295,0.783-0.295,1.33c0,0.438,0.076,0.805,0.229,1.101
			c0.153,0.295,0.361,0.547,0.624,0.755c0.263,0.209,0.559,0.384,0.887,0.525c0.329,0.143,0.657,0.279,0.985,0.411l1.971,0.755
			c0.832,0.329,1.587,0.668,2.267,1.019c0.678,0.351,1.253,0.783,1.724,1.297c0.471,0.515,0.838,1.139,1.101,1.872
			c0.263,0.734,0.395,1.638,0.395,2.71c0,1.116-0.203,2.135-0.608,3.055c-0.405,0.919-0.99,1.708-1.757,2.364
			c-0.767,0.657-1.714,1.172-2.841,1.544c-1.128,0.372-2.426,0.559-3.892,0.559c-0.723,0-1.369-0.022-1.938-0.066
			s-1.111-0.114-1.625-0.213c-0.516-0.099-1.024-0.225-1.527-0.378c-0.504-0.153-1.029-0.339-1.577-0.559
			c0.066-0.635,0.187-1.297,0.361-1.987c0.176-0.689,0.383-1.384,0.624-2.085c0.92,0.372,1.784,0.651,2.595,0.837
			c0.81,0.187,1.675,0.279,2.595,0.279c1.38,0,2.464-0.257,3.252-0.771s1.182-1.297,1.182-2.349c0-0.525-0.093-0.963-0.278-1.313
			c-0.187-0.35-0.428-0.646-0.723-0.887c-0.296-0.24-0.63-0.443-1.002-0.607c-0.373-0.164-0.756-0.323-1.149-0.477L5.452,131.541z"
			/>
		<path class="st0" d="M19.903,118.864c0.416-0.066,0.821-0.109,1.215-0.132c0.395-0.021,0.8-0.032,1.216-0.032
			c0.372,0,0.755,0.011,1.149,0.032c0.394,0.022,0.799,0.065,1.215,0.132v12.25c0,1.336,0.05,2.48,0.148,3.433
			c0.098,0.952,0.295,1.74,0.591,2.364s0.711,1.084,1.248,1.38c0.536,0.296,1.231,0.443,2.086,0.443
			c0.854,0,1.543-0.147,2.068-0.443s0.937-0.756,1.232-1.38c0.295-0.624,0.492-1.412,0.591-2.364s0.147-2.097,0.147-3.433v-12.25
			c0.438-0.066,0.854-0.109,1.248-0.132c0.395-0.021,0.777-0.032,1.149-0.032c0.395,0,0.794,0.011,1.199,0.032
			c0.405,0.022,0.815,0.065,1.231,0.132v13.269c0,1.599-0.131,3.061-0.394,4.385c-0.264,1.325-0.734,2.458-1.413,3.399
			s-1.588,1.67-2.726,2.184c-1.139,0.515-2.584,0.772-4.335,0.772c-1.753,0-3.197-0.258-4.336-0.772
			c-1.139-0.514-2.048-1.242-2.726-2.184c-0.68-0.941-1.149-2.074-1.412-3.399c-0.264-1.324-0.395-2.786-0.395-4.385V118.864z"/>
		<path class="st0" d="M47.195,131.541c-0.744-0.285-1.412-0.597-2.003-0.937c-0.592-0.339-1.096-0.744-1.511-1.215
			c-0.417-0.471-0.739-1.035-0.97-1.691c-0.229-0.657-0.345-1.445-0.345-2.365c0-1.116,0.191-2.102,0.575-2.956
			c0.383-0.854,0.925-1.57,1.626-2.151c0.7-0.579,1.543-1.018,2.528-1.313c0.985-0.295,2.091-0.443,3.317-0.443
			c1.117,0,2.162,0.099,3.137,0.296c0.974,0.197,1.998,0.481,3.071,0.854c-0.132,1.271-0.482,2.519-1.052,3.744
			c-0.328-0.131-0.662-0.263-1.001-0.394c-0.34-0.132-0.701-0.241-1.084-0.329c-0.384-0.087-0.816-0.158-1.298-0.213
			s-1.029-0.082-1.642-0.082c-0.373,0-0.751,0.032-1.134,0.099c-0.383,0.065-0.728,0.186-1.034,0.361
			c-0.307,0.175-0.559,0.433-0.756,0.771c-0.196,0.34-0.295,0.783-0.295,1.33c0,0.438,0.076,0.805,0.229,1.101
			c0.153,0.295,0.361,0.547,0.624,0.755c0.263,0.209,0.559,0.384,0.887,0.525c0.329,0.143,0.657,0.279,0.985,0.411l1.971,0.755
			c0.832,0.329,1.587,0.668,2.267,1.019c0.678,0.351,1.253,0.783,1.724,1.297c0.471,0.515,0.838,1.139,1.101,1.872
			c0.263,0.734,0.395,1.638,0.395,2.71c0,1.116-0.203,2.135-0.608,3.055c-0.405,0.919-0.99,1.708-1.757,2.364
			c-0.767,0.657-1.714,1.172-2.841,1.544c-1.128,0.372-2.426,0.559-3.892,0.559c-0.723,0-1.369-0.022-1.938-0.066
			s-1.111-0.114-1.625-0.213c-0.516-0.099-1.024-0.225-1.527-0.378c-0.504-0.153-1.029-0.339-1.577-0.559
			c0.066-0.635,0.187-1.297,0.361-1.987c0.176-0.689,0.383-1.384,0.624-2.085c0.92,0.372,1.784,0.651,2.595,0.837
			c0.81,0.187,1.675,0.279,2.595,0.279c1.38,0,2.464-0.257,3.252-0.771s1.182-1.297,1.182-2.349c0-0.525-0.093-0.963-0.278-1.313
			c-0.187-0.35-0.428-0.646-0.723-0.887c-0.296-0.24-0.63-0.443-1.002-0.607c-0.373-0.164-0.756-0.323-1.149-0.477L47.195,131.541z"
			/>
		<path class="st0" d="M66.376,122.936h-5.879c-0.132-0.657-0.197-1.347-0.197-2.069c0-0.678,0.065-1.347,0.197-2.003h16.586
			c0.131,0.656,0.197,1.325,0.197,2.003c0,0.723-0.066,1.412-0.197,2.069h-5.879v19.542c-0.395,0.044-0.788,0.082-1.183,0.115
			c-0.395,0.032-0.777,0.049-1.149,0.049c-0.373,0-0.771-0.011-1.199-0.032c-0.427-0.022-0.859-0.066-1.297-0.132V122.936z"/>
		<path class="st0" d="M84.406,118.864c0.46-0.066,0.898-0.115,1.314-0.148c0.415-0.032,0.875-0.049,1.379-0.049
			c0.438,0,0.865,0.017,1.281,0.049c0.416,0.033,0.875,0.082,1.379,0.148l7.391,23.614c-0.898,0.132-1.774,0.197-2.628,0.197
			c-0.832,0-1.643-0.065-2.431-0.197l-1.313-4.729h-7.816l-1.347,4.729c-0.788,0.132-1.544,0.197-2.267,0.197
			c-0.811,0-1.609-0.065-2.397-0.197L84.406,118.864z M89.662,133.775l-2.727-9.919l-2.857,9.919H89.662z"/>
		<path class="st0" d="M100.631,118.864c0.811-0.132,1.609-0.197,2.398-0.197c0.788,0,1.598,0.065,2.43,0.197v23.614
			c-0.832,0.132-1.631,0.197-2.397,0.197c-0.811,0-1.62-0.065-2.431-0.197V118.864z"/>
		<path class="st0" d="M110.878,118.864c0.679-0.132,1.324-0.197,1.938-0.197c0.657,0,1.336,0.065,2.036,0.197l9.131,15.042v-15.042
			c0.788-0.132,1.544-0.197,2.267-0.197c0.678,0,1.335,0.065,1.971,0.197v23.614c-0.701,0.132-1.336,0.197-1.905,0.197
			c-0.613,0-1.281-0.065-2.004-0.197l-9.196-15.01v15.01c-0.7,0.132-1.412,0.197-2.135,0.197c-0.722,0-1.423-0.065-2.102-0.197
			V118.864z"/>
		<path class="st0" d="M139.123,118.864c0.46-0.066,0.897-0.115,1.313-0.148c0.416-0.032,0.876-0.049,1.38-0.049
			c0.438,0,0.864,0.017,1.28,0.049c0.416,0.033,0.876,0.082,1.38,0.148l7.39,23.614c-0.898,0.132-1.773,0.197-2.627,0.197
			c-0.833,0-1.643-0.065-2.431-0.197l-1.313-4.729h-7.817l-1.347,4.729c-0.788,0.132-1.543,0.197-2.266,0.197
			c-0.811,0-1.609-0.065-2.397-0.197L139.123,118.864z M144.378,133.775l-2.726-9.919l-2.857,9.919H144.378z"/>
		<path class="st0" d="M155.413,118.83c0.701-0.109,1.511-0.197,2.431-0.263s2.069-0.099,3.448-0.099
			c1.204,0,2.343,0.099,3.416,0.296c1.072,0.197,2.009,0.531,2.809,1.002c0.799,0.471,1.429,1.1,1.888,1.888
			c0.46,0.789,0.69,1.774,0.69,2.956c0,0.701-0.104,1.353-0.312,1.954c-0.208,0.603-0.487,1.128-0.837,1.577
			c-0.351,0.449-0.745,0.821-1.183,1.116c-0.438,0.296-0.887,0.477-1.347,0.542c0.503,0.065,1.062,0.22,1.675,0.46
			c0.613,0.241,1.183,0.597,1.708,1.067s0.963,1.079,1.313,1.823s0.525,1.642,0.525,2.692c0,1.424-0.269,2.59-0.805,3.498
			c-0.536,0.909-1.259,1.626-2.167,2.151c-0.909,0.525-1.96,0.887-3.153,1.084s-2.447,0.296-3.761,0.296
			c-1.007,0-2.003-0.028-2.988-0.082c-0.985-0.056-2.103-0.159-3.351-0.312V118.83z M161.621,128.421
			c0.547,0,1.056-0.05,1.527-0.148c0.47-0.099,0.881-0.273,1.231-0.525c0.35-0.251,0.624-0.591,0.821-1.018
			c0.196-0.428,0.295-0.97,0.295-1.626c0-0.635-0.115-1.155-0.345-1.561c-0.229-0.404-0.525-0.723-0.887-0.952
			s-0.767-0.383-1.215-0.46c-0.449-0.076-0.893-0.115-1.33-0.115c-0.613,0-1.129,0.033-1.544,0.099v6.307H161.621z M160.176,138.866
			c0.307,0.044,0.662,0.076,1.067,0.098c0.404,0.022,0.771,0.033,1.101,0.033c0.459,0,0.94-0.044,1.444-0.131
			c0.504-0.088,0.975-0.258,1.413-0.51c0.438-0.251,0.799-0.602,1.083-1.051c0.284-0.448,0.428-1.034,0.428-1.757
			c0-0.679-0.11-1.243-0.329-1.691c-0.219-0.449-0.531-0.811-0.936-1.084c-0.405-0.273-0.887-0.465-1.445-0.575
			c-0.559-0.109-1.178-0.164-1.855-0.164h-1.971V138.866z"/>
		<path class="st0" d="M176.038,118.864c0.811-0.132,1.588-0.197,2.332-0.197c0.767,0,1.565,0.065,2.397,0.197v19.476h8.179
			c0.065,0.373,0.109,0.729,0.131,1.067c0.021,0.34,0.033,0.663,0.033,0.97c0,0.35-0.012,0.695-0.033,1.034
			c-0.021,0.34-0.065,0.695-0.131,1.067h-12.908V118.864z"/>
		<path class="st0" d="M193.052,118.864h13.4c0.131,0.656,0.197,1.325,0.197,2.003c0,0.723-0.066,1.412-0.197,2.069h-8.605v5.124
			h6.832c0.131,0.7,0.196,1.379,0.196,2.036c0,0.701-0.065,1.391-0.196,2.069h-6.832v6.24h8.835
			c0.132,0.656,0.197,1.324,0.197,2.003c0,0.723-0.065,1.412-0.197,2.069h-13.63V118.864z"/>
		<path class="st0" d="M232.89,118.864c0.46-0.066,0.897-0.115,1.313-0.148c0.416-0.032,0.876-0.049,1.38-0.049
			c0.438,0,0.864,0.017,1.28,0.049c0.416,0.033,0.876,0.082,1.38,0.148l7.39,23.614c-0.898,0.132-1.773,0.197-2.627,0.197
			c-0.833,0-1.643-0.065-2.431-0.197l-1.313-4.729h-7.817l-1.347,4.729c-0.788,0.132-1.543,0.197-2.266,0.197
			c-0.811,0-1.609-0.065-2.397-0.197L232.89,118.864z M238.145,133.775l-2.726-9.919l-2.857,9.919H238.145z"/>
		<path class="st0" d="M261.267,130.227c0.81-0.131,1.598-0.196,2.364-0.196s1.565,0.065,2.397,0.196v11.594
			c-1.139,0.417-2.326,0.695-3.563,0.838s-2.315,0.214-3.235,0.214c-1.927,0-3.612-0.302-5.058-0.903
			c-1.445-0.603-2.649-1.445-3.612-2.529c-0.964-1.084-1.687-2.37-2.168-3.859c-0.482-1.488-0.723-3.108-0.723-4.86
			s0.251-3.377,0.756-4.877c0.503-1.5,1.231-2.797,2.184-3.893c0.952-1.095,2.124-1.948,3.515-2.562
			c1.39-0.613,2.972-0.92,4.745-0.92c1.052,0,2.031,0.065,2.939,0.197c0.909,0.131,1.856,0.405,2.842,0.821
			c-0.045,0.656-0.176,1.297-0.395,1.921s-0.46,1.254-0.723,1.889c-0.767-0.263-1.445-0.448-2.036-0.559
			c-0.591-0.109-1.292-0.164-2.102-0.164c-2.103,0-3.718,0.685-4.845,2.053c-1.128,1.369-1.691,3.399-1.691,6.093
			s0.559,4.702,1.675,6.026c1.116,1.325,2.759,1.987,4.927,1.987c0.372,0,0.706-0.021,1.002-0.065
			c0.295-0.044,0.563-0.088,0.805-0.132V130.227z"/>
		<path class="st0" d="M271.283,118.864c0.963-0.109,1.866-0.202,2.71-0.279c0.842-0.076,1.778-0.115,2.808-0.115
			c1.204,0,2.392,0.11,3.563,0.328c1.171,0.22,2.228,0.608,3.17,1.166c0.94,0.559,1.702,1.314,2.282,2.267s0.87,2.162,0.87,3.629
			c0,0.876-0.109,1.648-0.328,2.315c-0.22,0.669-0.498,1.254-0.838,1.758s-0.706,0.936-1.1,1.297
			c-0.395,0.361-0.767,0.651-1.117,0.87l-0.559,0.361l5.748,9.984c-0.438,0.044-0.898,0.088-1.38,0.132s-0.975,0.065-1.478,0.065
			c-0.832,0-1.653-0.065-2.463-0.197l-6.175-10.97l0.788-0.394c0.307-0.153,0.679-0.351,1.116-0.592
			c0.438-0.24,0.859-0.542,1.265-0.902c0.405-0.361,0.75-0.8,1.035-1.314c0.284-0.514,0.427-1.121,0.427-1.822
			c0-1.38-0.395-2.393-1.183-3.038s-1.807-0.969-3.055-0.969c-0.481,0-0.919,0.032-1.313,0.099v19.936
			c-0.394,0.044-0.788,0.082-1.183,0.115c-0.394,0.032-0.777,0.049-1.149,0.049s-0.767-0.011-1.182-0.032
			c-0.417-0.022-0.844-0.066-1.281-0.132V118.864z"/>
		<path class="st0" d="M301.236,142.872c-1.773,0-3.306-0.308-4.598-0.92c-1.292-0.613-2.354-1.462-3.186-2.546
			c-0.833-1.083-1.451-2.364-1.856-3.842c-0.405-1.479-0.607-3.093-0.607-4.845s0.202-3.377,0.607-4.877s1.023-2.797,1.856-3.893
			c0.831-1.095,1.894-1.948,3.186-2.562s2.824-0.92,4.598-0.92s3.307,0.307,4.599,0.92c1.291,0.613,2.354,1.467,3.186,2.562
			c0.832,1.096,1.45,2.393,1.855,3.893s0.607,3.125,0.607,4.877s-0.202,3.366-0.607,4.845c-0.405,1.478-1.023,2.759-1.855,3.842
			c-0.832,1.084-1.895,1.933-3.186,2.546C304.543,142.565,303.01,142.872,301.236,142.872z M301.236,138.866
			c3.394,0,5.091-2.715,5.091-8.146c0-2.715-0.41-4.751-1.231-6.109c-0.821-1.357-2.097-2.036-3.826-2.036
			c-3.438,0-5.156,2.716-5.156,8.146C296.113,136.151,297.821,138.866,301.236,138.866z"/>
		<path class="st0" d="M316.278,118.864h13.4c0.132,0.656,0.197,1.325,0.197,2.003c0,0.723-0.065,1.412-0.197,2.069h-8.605v5.551
			h6.832c0.131,0.701,0.197,1.379,0.197,2.036c0,0.701-0.066,1.391-0.197,2.069h-6.832v9.886c-0.832,0.132-1.62,0.197-2.364,0.197
			c-0.811,0-1.621-0.065-2.431-0.197V118.864z"/>
		<path class="st0" d="M343.374,142.872c-1.773,0-3.306-0.308-4.598-0.92c-1.292-0.613-2.354-1.462-3.186-2.546
			c-0.833-1.083-1.451-2.364-1.856-3.842c-0.405-1.479-0.607-3.093-0.607-4.845s0.202-3.377,0.607-4.877s1.023-2.797,1.856-3.893
			c0.831-1.095,1.894-1.948,3.186-2.562s2.824-0.92,4.598-0.92s3.307,0.307,4.599,0.92c1.291,0.613,2.354,1.467,3.186,2.562
			c0.832,1.096,1.45,2.393,1.855,3.893s0.607,3.125,0.607,4.877s-0.202,3.366-0.607,4.845c-0.405,1.478-1.023,2.759-1.855,3.842
			c-0.832,1.084-1.895,1.933-3.186,2.546C346.681,142.565,345.147,142.872,343.374,142.872z M343.374,138.866
			c3.394,0,5.091-2.715,5.091-8.146c0-2.715-0.41-4.751-1.231-6.109c-0.821-1.357-2.097-2.036-3.826-2.036
			c-3.438,0-5.156,2.716-5.156,8.146C338.251,136.151,339.959,138.866,343.374,138.866z"/>
		<path class="st0" d="M358.646,118.864c0.963-0.109,1.866-0.202,2.709-0.279c0.843-0.076,1.779-0.115,2.809-0.115
			c1.204,0,2.392,0.11,3.563,0.328c1.171,0.22,2.228,0.608,3.169,1.166c0.941,0.559,1.702,1.314,2.283,2.267
			c0.58,0.952,0.87,2.162,0.87,3.629c0,0.876-0.11,1.648-0.328,2.315c-0.22,0.669-0.499,1.254-0.838,1.758
			c-0.34,0.504-0.706,0.936-1.101,1.297c-0.394,0.361-0.767,0.651-1.116,0.87l-0.559,0.361l5.748,9.984
			c-0.438,0.044-0.898,0.088-1.38,0.132s-0.975,0.065-1.478,0.065c-0.833,0-1.653-0.065-2.464-0.197l-6.174-10.97l0.788-0.394
			c0.306-0.153,0.678-0.351,1.116-0.592c0.438-0.24,0.859-0.542,1.265-0.902c0.405-0.361,0.75-0.8,1.034-1.314
			c0.285-0.514,0.428-1.121,0.428-1.822c0-1.38-0.395-2.393-1.183-3.038s-1.807-0.969-3.055-0.969c-0.481,0-0.92,0.032-1.313,0.099
			v19.936c-0.395,0.044-0.788,0.082-1.183,0.115c-0.394,0.032-0.777,0.049-1.149,0.049s-0.767-0.011-1.183-0.032
			c-0.416-0.022-0.843-0.066-1.28-0.132V118.864z"/>
		<path class="st0" d="M379.305,118.864h13.4c0.132,0.656,0.197,1.325,0.197,2.003c0,0.723-0.065,1.412-0.197,2.069H384.1v5.124
			h6.832c0.131,0.7,0.197,1.379,0.197,2.036c0,0.701-0.066,1.391-0.197,2.069H384.1v6.24h8.835c0.132,0.656,0.197,1.324,0.197,2.003
			c0,0.723-0.065,1.412-0.197,2.069h-13.63V118.864z"/>
		<path class="st0" d="M401.868,131.541c-0.745-0.285-1.412-0.597-2.004-0.937c-0.591-0.339-1.095-0.744-1.511-1.215
			s-0.738-1.035-0.969-1.691c-0.229-0.657-0.345-1.445-0.345-2.365c0-1.116,0.191-2.102,0.575-2.956
			c0.383-0.854,0.925-1.57,1.625-2.151c0.701-0.579,1.544-1.018,2.529-1.313c0.985-0.295,2.091-0.443,3.317-0.443
			c1.116,0,2.162,0.099,3.137,0.296c0.974,0.197,1.997,0.481,3.07,0.854c-0.131,1.271-0.481,2.519-1.051,3.744
			c-0.328-0.131-0.662-0.263-1.002-0.394c-0.34-0.132-0.701-0.241-1.084-0.329c-0.383-0.087-0.815-0.158-1.297-0.213
			s-1.029-0.082-1.643-0.082c-0.372,0-0.75,0.032-1.133,0.099c-0.383,0.065-0.729,0.186-1.034,0.361
			c-0.308,0.175-0.559,0.433-0.756,0.771c-0.197,0.34-0.295,0.783-0.295,1.33c0,0.438,0.076,0.805,0.229,1.101
			c0.153,0.295,0.361,0.547,0.624,0.755c0.263,0.209,0.559,0.384,0.887,0.525c0.328,0.143,0.657,0.279,0.985,0.411l1.971,0.755
			c0.832,0.329,1.587,0.668,2.266,1.019s1.254,0.783,1.725,1.297c0.471,0.515,0.838,1.139,1.101,1.872
			c0.263,0.734,0.394,1.638,0.394,2.71c0,1.116-0.202,2.135-0.607,3.055c-0.405,0.919-0.991,1.708-1.757,2.364
			c-0.767,0.657-1.714,1.172-2.841,1.544c-1.128,0.372-2.426,0.559-3.893,0.559c-0.723,0-1.368-0.022-1.938-0.066
			s-1.111-0.114-1.626-0.213s-1.023-0.225-1.527-0.378s-1.029-0.339-1.576-0.559c0.065-0.635,0.186-1.297,0.361-1.987
			c0.175-0.689,0.383-1.384,0.624-2.085c0.92,0.372,1.784,0.651,2.595,0.837c0.81,0.187,1.675,0.279,2.595,0.279
			c1.379,0,2.463-0.257,3.251-0.771c0.789-0.515,1.183-1.297,1.183-2.349c0-0.525-0.093-0.963-0.279-1.313
			c-0.186-0.35-0.427-0.646-0.723-0.887c-0.295-0.24-0.629-0.443-1.001-0.607c-0.373-0.164-0.756-0.323-1.149-0.477L401.868,131.541
			z"/>
		<path class="st0" d="M421.048,122.936h-5.879c-0.132-0.657-0.197-1.347-0.197-2.069c0-0.678,0.065-1.347,0.197-2.003h16.586
			c0.131,0.656,0.196,1.325,0.196,2.003c0,0.723-0.065,1.412-0.196,2.069h-5.879v19.542c-0.395,0.044-0.789,0.082-1.183,0.115
			c-0.395,0.032-0.777,0.049-1.149,0.049c-0.373,0-0.772-0.011-1.199-0.032c-0.427-0.022-0.859-0.066-1.297-0.132V122.936z"/>
		<path class="st0" d="M436.123,118.864c0.963-0.109,1.866-0.202,2.709-0.279c0.843-0.076,1.779-0.115,2.809-0.115
			c1.204,0,2.392,0.11,3.563,0.328c1.171,0.22,2.228,0.608,3.169,1.166c0.941,0.559,1.702,1.314,2.283,2.267
			c0.58,0.952,0.87,2.162,0.87,3.629c0,0.876-0.11,1.648-0.328,2.315c-0.22,0.669-0.499,1.254-0.838,1.758
			c-0.34,0.504-0.706,0.936-1.101,1.297c-0.394,0.361-0.767,0.651-1.116,0.87l-0.559,0.361l5.748,9.984
			c-0.438,0.044-0.898,0.088-1.38,0.132s-0.975,0.065-1.478,0.065c-0.833,0-1.653-0.065-2.464-0.197l-6.174-10.97l0.788-0.394
			c0.306-0.153,0.678-0.351,1.116-0.592c0.438-0.24,0.859-0.542,1.265-0.902c0.405-0.361,0.75-0.8,1.034-1.314
			c0.285-0.514,0.428-1.121,0.428-1.822c0-1.38-0.395-2.393-1.183-3.038s-1.807-0.969-3.055-0.969c-0.481,0-0.92,0.032-1.313,0.099
			v19.936c-0.395,0.044-0.788,0.082-1.183,0.115c-0.394,0.032-0.777,0.049-1.149,0.049s-0.767-0.011-1.183-0.032
			c-0.416-0.022-0.843-0.066-1.28-0.132V118.864z"/>
		<path class="st0" d="M461.511,134.037l-7.357-15.174c0.92-0.132,1.84-0.197,2.759-0.197c0.832,0,1.664,0.065,2.496,0.197
			l4.664,10.707l4.599-10.707c0.81-0.132,1.642-0.197,2.496-0.197c0.788,0,1.631,0.065,2.528,0.197l-7.356,15.174v8.474
			c-0.438,0.065-0.854,0.109-1.248,0.131c-0.395,0.021-0.788,0.033-1.183,0.033c-0.373,0-0.761-0.012-1.166-0.033
			s-0.816-0.065-1.231-0.131V134.037z"/>
	</g>
</g>
</svg>