<svg id="Capa_1" data-name="Capa 1" xmlns="http://www.w3.org/2000/svg" viewBox="0 0 77.56 77.56"><defs><style>.cls-1{fill:#5e7aa7;}.cls-2{fill:#fff;}</style></defs><path class="cls-1" d="M363.85,380.58a38.78,38.78,0,1,0-38.79-38.78,38.78,38.78,0,0,0,38.79,38.78" transform="translate(-325.06 -303.02)"/><path class="cls-2" d="M381.82,350.72a9.73,9.73,0,0,1-2,3,1,1,0,0,0-.1,1.24l.84,1.24-2,1.38-.84-1.24a1,1,0,0,0-1.19-.36,9.73,9.73,0,0,1-3.56.74,1,1,0,0,0-.95.8L371.7,359l-2.42-.46.28-1.48A1,1,0,0,0,369,356a9.57,9.57,0,0,1-3-2,1,1,0,0,0-1.24-.11l-1.25.85-1.38-2,1.24-.84a1,1,0,0,0,.36-1.19,9.73,9.73,0,0,1-.74-3.56,1,1,0,0,0-.8-.95l-1.48-.28.47-2.42,1.47.28a1,1,0,0,0,1.1-.59,9.72,9.72,0,0,1,2-3,1,1,0,0,0,.11-1.24l-.85-1.25,2-1.38.85,1.24a1,1,0,0,0,1.19.36,9.68,9.68,0,0,1,3.55-.74,1,1,0,0,0,.95-.8l.29-1.48,2.42.47-.29,1.47a1,1,0,0,0,.59,1.1,9.88,9.88,0,0,1,3,2,1,1,0,0,0,1.24.11l1.24-.85,1.39,2-1.25.84a1,1,0,0,0-.36,1.2,9.68,9.68,0,0,1,.74,3.55,1,1,0,0,0,.8.95l1.48.28-.46,2.43-1.48-.29a1,1,0,0,0-1.09.59m3.17,1.82a1,1,0,0,0,1.15-.79l.83-4.36a1,1,0,0,0-.15-.73,1,1,0,0,0-.63-.42l-1.69-.32a11,11,0,0,0-.56-2.71l1.42-1a1,1,0,0,0,.26-1.37l-2.49-3.67a1,1,0,0,0-.63-.42,1,1,0,0,0-.74.16l-1.42,1a11.39,11.39,0,0,0-2.31-1.52l.32-1.68a1,1,0,0,0-.79-1.16l-4.36-.83a1,1,0,0,0-.73.15,1,1,0,0,0-.42.63l-.32,1.69a12,12,0,0,0-2.71.56l-1-1.42a1,1,0,0,0-.63-.41,1,1,0,0,0-.74.15l-3.67,2.5a1,1,0,0,0-.42.63,1,1,0,0,0,.16.74l1,1.41a11.67,11.67,0,0,0-1.52,2.31l-1.68-.32a1,1,0,0,0-1.16.79l-.83,4.36a1,1,0,0,0,.79,1.15L361,348a12,12,0,0,0,.56,2.71l-1.42,1a1,1,0,0,0-.41.63,1,1,0,0,0,.15.74l2.5,3.68a1,1,0,0,0,.63.41,1,1,0,0,0,.74-.15l1.41-1a11.67,11.67,0,0,0,2.31,1.52l-.32,1.69a1,1,0,0,0,.79,1.15l4.36.83.18,0a1,1,0,0,0,1-.8l.32-1.69a11.46,11.46,0,0,0,2.71-.56l1,1.42a1,1,0,0,0,1.37.26l3.68-2.49a1,1,0,0,0,.26-1.37l-1-1.42a11.39,11.39,0,0,0,1.52-2.31Z" transform="translate(-325.06 -303.02)"/><path class="cls-2" d="M377.78,347.9a5.12,5.12,0,1,1-5-6.08,5.31,5.31,0,0,1,1,.09,5.13,5.13,0,0,1,4.07,6m-3.7-7.93a7.1,7.1,0,0,0-2.66,13.94,7.65,7.65,0,0,0,1.33.12A7.09,7.09,0,0,0,374.08,340" transform="translate(-325.06 -303.02)"/><path class="cls-2" d="M343.4,333.33a.74.74,0,0,0,.63-.69,7.36,7.36,0,0,1,.68-2.64.74.74,0,0,0-.23-.91l-.9-.68,1.11-1.48.9.68a.75.75,0,0,0,.94,0,7.23,7.23,0,0,1,2.34-1.39.74.74,0,0,0,.48-.8l-.16-1.12L351,324l.16,1.11a.74.74,0,0,0,.68.64,7.4,7.4,0,0,1,2.65.67.74.74,0,0,0,.91-.22l.67-.91,1.48,1.11-.67.91a.74.74,0,0,0,0,.93,7.3,7.3,0,0,1,1.4,2.35.74.74,0,0,0,.8.48l1.12-.16.26,1.83-1.12.16a.75.75,0,0,0-.63.69,7.41,7.41,0,0,1-.68,2.64.74.74,0,0,0,.23.91l.9.68-1.11,1.48-.9-.68a.75.75,0,0,0-.94,0,7.23,7.23,0,0,1-2.34,1.39.74.74,0,0,0-.48.8l.16,1.12-1.84.26-.16-1.11a.74.74,0,0,0-.68-.64,7.4,7.4,0,0,1-2.65-.67.67.67,0,0,0-.31-.07.72.72,0,0,0-.59.29l-.68.91-1.48-1.11.67-.91a.73.73,0,0,0,0-.93,7.6,7.6,0,0,1-1.4-2.35.74.74,0,0,0-.8-.48l-1.11.16-.27-1.83Zm-2.22,2.94a.76.76,0,0,0,.84.63l1.28-.19a8.28,8.28,0,0,0,1.06,1.79l-.77,1a.75.75,0,0,0,.14,1l2.67,2a.74.74,0,0,0,1-.15l.78-1a8.72,8.72,0,0,0,2,.51l.18,1.28a.76.76,0,0,0,.29.49.8.8,0,0,0,.45.14h.1l3.3-.48a.73.73,0,0,0,.63-.84l-.18-1.27a9.27,9.27,0,0,0,1.79-1.06l1,.77a.74.74,0,0,0,1-.15l2-2.67a.76.76,0,0,0-.15-1l-1-.77a8.26,8.26,0,0,0,.52-2l1.28-.19a.68.68,0,0,0,.48-.29.71.71,0,0,0,.14-.55l-.47-3.3a.75.75,0,0,0-.84-.63l-1.27.19a8.75,8.75,0,0,0-1.07-1.79l.78-1a.74.74,0,0,0-.15-1l-2.67-2a.74.74,0,0,0-1,.15l-.77,1a8.8,8.8,0,0,0-2-.51l-.18-1.28a.75.75,0,0,0-.84-.63l-3.3.48a.7.7,0,0,0-.49.29.71.71,0,0,0-.14.55l.18,1.27a8.9,8.9,0,0,0-1.78,1.06l-1-.77a.73.73,0,0,0-1,.15l-2,2.67a.74.74,0,0,0,.15,1l1,.77a8.74,8.74,0,0,0-.52,2l-1.27.18a.75.75,0,0,0-.49.3.71.71,0,0,0-.14.55Z" transform="translate(-325.06 -303.02)"/><path class="cls-2" d="M350.85,329.31a3.48,3.48,0,0,1,.55,0,3.85,3.85,0,1,1-.55,0m.55,9.14a5,5,0,0,0,.76-.06,5.28,5.28,0,1,0-.76.06" transform="translate(-325.06 -303.02)"/></svg>