<!-- Generator: Adobe Illustrator 25.2.3, SVG Export Plug-In  -->
<svg version="1.1" xmlns="http://www.w3.org/2000/svg" xmlns:xlink="http://www.w3.org/1999/xlink" x="0px" y="0px"
	 width="97.118px" height="97.047px" viewBox="0 0 97.118 97.047"
	 style="overflow:visible;enable-background:new 0 0 97.118 97.047;" xml:space="preserve">
<style type="text/css">
	.st0{fill:#FFFFFF;}
</style>
<defs>
</defs>
<g>
	<path class="st0" d="M48.493,0.162c7.628,0,15.266-0.249,22.883,0.054c14.358,0.57,25.358,11.741,25.576,26.092
		c0.226,14.881,0.219,29.771-0.006,44.653c-0.214,14.195-11.12,25.398-25.308,25.754c-14.725,0.37-29.474,0.478-44.196,0.08
		C10.873,96.347,0.409,85.457,0.154,68.874c-0.21-13.685-0.203-27.378,0.007-41.063C0.375,13.803,8.079,3.853,20.75,0.93
		c2.88-0.665,5.921-0.803,8.894-0.862c6.281-0.125,12.566-0.038,18.849-0.038C48.493,0.074,48.493,0.118,48.493,0.162z
		 M8.979,48.439c0.003,0,0.007,0,0.01,0c0,6.885,0,13.769,0,20.654c0,0.224,0.003,0.449,0.009,0.673
		c0.253,8.662,4.846,15.128,12.644,17.342c2.482,0.704,5.153,0.999,7.742,1.021c12.047,0.104,24.096,0.069,36.144,0.027
		c2.536-0.009,5.09-0.113,7.605-0.422c7.216-0.886,12.748-5.719,14.356-12.638c0.605-2.602,1.039-5.307,1.061-7.969
		c0.106-13.02,0.155-26.043,0.012-39.062C88.432,16.284,80.985,8.919,69.199,8.83C55.58,8.727,41.959,8.706,28.34,8.835
		C16.192,8.951,9.035,16.316,8.984,28.459C8.957,35.119,8.979,41.779,8.979,48.439z"/>
	<path class="st0" d="M23.699,48.511c-0.013-13.851,11.078-24.975,24.898-24.97c13.731,0.005,25.02,11.272,25.013,24.964
		c-0.007,13.768-11.212,24.938-25.007,24.929C34.685,73.424,23.712,62.443,23.699,48.511z M64.696,48.564
		c0.019-8.928-7.107-16.133-16.001-16.176c-8.826-0.043-16.178,7.202-16.256,16.02c-0.078,8.748,7.264,16.124,16.101,16.176
		C57.42,64.637,64.677,57.441,64.696,48.564z"/>
	<path class="st0" d="M69.113,22.561c0.028-3.104,2.47-5.513,5.571-5.497c3.058,0.016,5.576,2.51,5.591,5.541
		c0.016,3.153-2.526,5.611-5.749,5.559C71.383,28.113,69.084,25.734,69.113,22.561z"/>
</g>
</svg>