<svg id="Capa_1" data-name="Capa 1" xmlns="http://www.w3.org/2000/svg" viewBox="0 0 129.33 130.27"><defs><style>.cls-1{fill:#173853;}</style></defs><g id="eXjKk7.tif"><path class="cls-1" d="M68.74,369.37h13a4.33,4.33,0,0,0,.79.19,54.12,54.12,0,0,1,19.13,5.28c21,10.29,33.72,26.9,36.68,50.32,1.78,14-.6,27.52-8.08,39.73C117.63,485.52,99.05,496.12,75,496.6a58.29,58.29,0,0,1-28.41-6.94,4.79,4.79,0,0,0-4-.32c-3.89,1.31-7.82,2.52-11.73,3.79l-19.9,6.49c-.65,0-1.6.33-1.3-1q5.31-15.7,10.61-31.41a3.63,3.63,0,0,0-.38-3.23,62.41,62.41,0,0,1-8.23-31.58,61.3,61.3,0,0,1,7.67-29.76c8.19-14.83,20.25-25.05,36.33-30.44A68.55,68.55,0,0,1,68.74,369.37ZM26.6,482.83c6-1.95,11.72-3.73,17.36-5.6a4.52,4.52,0,0,1,4.11.31c17.26,10,34.92,10.52,52.47,1.19,24.1-12.82,33.86-43.25,22.25-68.1-11-23.51-37.76-35.82-62.54-28-20.68,6.57-33.12,21-36.62,42.66-2.13,13.12.8,25.35,8.09,36.45a4.64,4.64,0,0,1,.46,4.65C30.28,471.73,28.54,477.09,26.6,482.83Z" transform="translate(-9.57 -369.37)"/><path class="cls-1" d="M55.47,401.55c4.36.25,4.76.57,6.17,4.45,1.31,3.62,2.61,7.24,4,10.82a4.2,4.2,0,0,1-.27,3.87,22,22,0,0,1-4.06,4.85,2.48,2.48,0,0,0-.46,3.35,43,43,0,0,0,20.47,19.24c2.26,1,2.72.94,4.37-.89s3-3.41,4.47-5.16a2.89,2.89,0,0,1,3.86-.91c4.42,2.06,8.67,4.45,12.94,6.78a2.75,2.75,0,0,1,1.48,2.68c0,7.78-5.13,12.18-12.91,13.92-4,.91-7.69-.27-11.37-1.59-8.12-2.92-15.7-6.71-22-12.82a89.63,89.63,0,0,1-13.29-16.78c-2.75-4.36-5-8.89-5.43-14.12a18.49,18.49,0,0,1,6.72-16.31A6.22,6.22,0,0,1,55.47,401.55Z" transform="translate(-9.57 -369.37)"/></g></svg>