<svg id="Capa_1" data-name="Capa 1" xmlns="http://www.w3.org/2000/svg" viewBox="0 0 77.56 77.56"><defs><style>.cls-1{fill:#173853;}.cls-2{fill:none;stroke:#fff;stroke-miterlimit:10;stroke-width:1.73px;}</style></defs><path class="cls-1" d="M72.79,380.58A38.78,38.78,0,1,0,34,341.8a38.78,38.78,0,0,0,38.78,38.78" transform="translate(-34.01 -303.02)"/><path class="cls-2" d="M67.83,355h9.93M66.1,350.84H79.27m-9.58-14.35h5.92m.64-2-1.94,6.85m-5.19-6.85,1.94,6.85m5.7,15.42a4,4,0,1,1-7.94,0m16.46-21.41a12.49,12.49,0,1,1-12.49-12.49A12.49,12.49,0,0,1,85.28,335.35Z" transform="translate(-34.01 -303.02)"/></svg>