<svg id="Capa_1" data-name="Capa 1" xmlns="http://www.w3.org/2000/svg" viewBox="0 0 150.82 150.82"><defs><style>.cls-1{fill:#173853;}</style></defs><path class="cls-1" d="M-61.42,915.44a16.18,16.18,0,0,0-16.16,15.93,16.18,16.18,0,0,0,16,16.08,16,16,0,0,0,16.06-15.93A16,16,0,0,0-61.42,915.44Z" transform="translate(137.58 -855.08)"/><path class="cls-1" d="M-41,892c-13.54-.1-27.09-.13-40.63,0-12.08.12-19.2,7.44-19.25,19.52,0,6.62,0,13.24,0,19.87h0v20.54c0,.22,0,.44,0,.67.25,8.61,4.82,15,12.57,17.24a29.82,29.82,0,0,0,7.7,1c12,.1,24,.07,35.94,0a61.85,61.85,0,0,0,7.57-.42,16.25,16.25,0,0,0,14.27-12.56A37.35,37.35,0,0,0-21.78,950c.1-13,.15-25.9,0-38.84C-21.9,899.42-29.31,892.1-41,892Zm-20.48,64.24a24.57,24.57,0,0,1-24.76-24.78,24.69,24.69,0,0,1,24.76-24.83,25,25,0,0,1,24.87,24.82A24.84,24.84,0,0,1-61.51,956.25Zm25.78-45a5.34,5.34,0,0,1-5.38-5.57,5.45,5.45,0,0,1,5.54-5.46A5.59,5.59,0,0,1-30,905.71,5.5,5.5,0,0,1-35.73,911.23Z" transform="translate(137.58 -855.08)"/><path class="cls-1" d="M-62.17,855.08a75.5,75.5,0,0,0-75.41,75.41,75.5,75.5,0,0,0,75.41,75.42,75.5,75.5,0,0,0,75.41-75.42A75.5,75.5,0,0,0-62.17,855.08Zm48.74,98.71A25.64,25.64,0,0,1-38.6,979.4c-14.65.37-29.31.48-43.95.08-16.48-.44-26.88-11.27-27.14-27.76q-.32-20.41,0-40.84c.21-13.93,7.87-23.82,20.47-26.73a42.9,42.9,0,0,1,8.85-.85c6.24-.13,12.49,0,18.74,0v.13c7.59,0,15.18-.25,22.76.05a26.1,26.1,0,0,1,25.43,25.95Q-13.08,931.59-13.43,953.79Z" transform="translate(137.58 -855.08)"/></svg>