<svg id="Capa_1" data-name="Capa 1" xmlns="http://www.w3.org/2000/svg" viewBox="0 0 550.4 153.37"><defs><style>.cls-1{fill:#173853;}</style></defs><path class="cls-1" d="M-1157.23,200.67c.7-.11,1.5-.19,2.41-.26s2-.1,3.42-.1a18.43,18.43,0,0,1,3.39.3,8.24,8.24,0,0,1,2.78,1,5.08,5.08,0,0,1,1.87,1.87,5.7,5.7,0,0,1,.68,2.93,6.07,6.07,0,0,1-.3,1.94,5.51,5.51,0,0,1-.83,1.56A5.15,5.15,0,0,1-1145,211a3.29,3.29,0,0,1-1.33.54,6.8,6.8,0,0,1,1.66.45,5.51,5.51,0,0,1,1.69,1.06,5.5,5.5,0,0,1,1.3,1.81,6.14,6.14,0,0,1,.53,2.67,6.74,6.74,0,0,1-.8,3.46,6,6,0,0,1-2.15,2.14,9,9,0,0,1-3.13,1.07,22.3,22.3,0,0,1-3.73.29c-1,0-2,0-3-.08s-2.08-.16-3.32-.31Zm6.15,9.51a7.25,7.25,0,0,0,1.52-.15,3.2,3.2,0,0,0,1.22-.52,2.46,2.46,0,0,0,.81-1,3.76,3.76,0,0,0,.3-1.61,3.09,3.09,0,0,0-.35-1.55,2.63,2.63,0,0,0-.87-.94,3.28,3.28,0,0,0-1.21-.46,8.4,8.4,0,0,0-1.32-.11,9.38,9.38,0,0,0-1.53.1v6.25Zm-1.43,10.35c.31,0,.66.08,1.06.1l1.09,0a8,8,0,0,0,1.43-.13,4.26,4.26,0,0,0,1.4-.5,3,3,0,0,0,1.08-1.05,3.2,3.2,0,0,0,.42-1.74,3.88,3.88,0,0,0-.32-1.67,2.71,2.71,0,0,0-.93-1.08,3.9,3.9,0,0,0-1.43-.57,9.55,9.55,0,0,0-1.84-.16h-2Z" transform="translate(1357.61 -71.13)"/><path class="cls-1" d="M-1132.09,200.7h13.28a10.18,10.18,0,0,1,.2,2,10.41,10.41,0,0,1-.2,2.05h-8.53v5.08h6.77a11,11,0,0,1,.2,2,10.79,10.79,0,0,1-.2,2h-6.77v6.19h8.76a10.07,10.07,0,0,1,.19,2,10.42,10.42,0,0,1-.19,2.05h-13.51Z" transform="translate(1357.61 -71.13)"/><path class="cls-1" d="M-1109.08,200.7c1-.11,1.86-.2,2.69-.27s1.76-.12,2.79-.12a18.93,18.93,0,0,1,3.53.33,9.65,9.65,0,0,1,3.14,1.15,6.58,6.58,0,0,1,2.26,2.25,6.76,6.76,0,0,1,.87,3.6,7.23,7.23,0,0,1-.33,2.29,6.92,6.92,0,0,1-.83,1.75A7.33,7.33,0,0,1-1096,213a7,7,0,0,1-1.11.86l-.55.36,5.7,9.9-1.37.13c-.48,0-1,.07-1.47.07a15.25,15.25,0,0,1-2.44-.2l-6.12-10.87.78-.4c.31-.15.67-.34,1.11-.58a6.9,6.9,0,0,0,1.25-.9,4.77,4.77,0,0,0,1-1.3,3.7,3.7,0,0,0,.42-1.81,3.68,3.68,0,0,0-1.17-3,4.62,4.62,0,0,0-3-1,7.39,7.39,0,0,0-1.3.1v19.76l-1.17.12c-.39,0-.77.05-1.14.05s-.76,0-1.18,0a11.64,11.64,0,0,1-1.27-.13Z" transform="translate(1357.61 -71.13)"/><path class="cls-1" d="M-1083.68,200.7c1-.11,1.85-.2,2.69-.27s1.76-.12,2.78-.12a18.93,18.93,0,0,1,3.53.33,9.79,9.79,0,0,1,3.15,1.15,6.66,6.66,0,0,1,2.26,2.25,6.85,6.85,0,0,1,.86,3.6,7.54,7.54,0,0,1-.32,2.29,7.28,7.28,0,0,1-.83,1.75,7,7,0,0,1-1.1,1.28,7.42,7.42,0,0,1-1.1.86l-.56.36,5.7,9.9-1.37.13c-.47,0-1,.07-1.46.07a15.16,15.16,0,0,1-2.44-.2l-6.12-10.87.78-.4c.3-.15.67-.34,1.1-.58a6.63,6.63,0,0,0,1.26-.9,4.75,4.75,0,0,0,1-1.3,3.59,3.59,0,0,0,.43-1.81,3.65,3.65,0,0,0-1.18-3,4.61,4.61,0,0,0-3-1,7.58,7.58,0,0,0-1.31.1v19.76l-1.17.12c-.39,0-.77.05-1.14.05s-.76,0-1.17,0a11.64,11.64,0,0,1-1.27-.13Z" transform="translate(1357.61 -71.13)"/><path class="cls-1" d="M-1058.51,200.7a14.78,14.78,0,0,1,2.38-.19,15.52,15.52,0,0,1,2.41.19v23.41a15.39,15.39,0,0,1-2.38.2,15,15,0,0,1-2.41-.2Z" transform="translate(1357.61 -71.13)"/><path class="cls-1" d="M-1043.66,200.7h13.28a10.17,10.17,0,0,1,.19,2,10.42,10.42,0,0,1-.19,2.05h-8.53v5.08h6.77a11,11,0,0,1,.2,2,10.79,10.79,0,0,1-.2,2h-6.77v6.19h8.76a10.07,10.07,0,0,1,.19,2,10.42,10.42,0,0,1-.19,2.05h-13.51Z" transform="translate(1357.61 -71.13)"/><path class="cls-1" d="M-1016.61,213.27a13,13,0,0,1-2-.93,5.59,5.59,0,0,1-1.5-1.2,5.12,5.12,0,0,1-1-1.68,7,7,0,0,1-.34-2.34,7.06,7.06,0,0,1,.57-2.93,5.69,5.69,0,0,1,1.61-2.14,7.07,7.07,0,0,1,2.5-1.3,11.59,11.59,0,0,1,3.29-.44,15.27,15.27,0,0,1,3.11.3,22.7,22.7,0,0,1,3,.84,11.42,11.42,0,0,1-1,3.71l-1-.39a7,7,0,0,0-1.07-.32,10.23,10.23,0,0,0-1.29-.21,13.21,13.21,0,0,0-1.63-.09,7.17,7.17,0,0,0-1.12.1,3.4,3.4,0,0,0-1,.36,2,2,0,0,0-.74.77,2.52,2.52,0,0,0-.3,1.31,2.35,2.35,0,0,0,.23,1.09,2.15,2.15,0,0,0,.62.75,3.65,3.65,0,0,0,.88.52c.32.15.65.28,1,.41l2,.75c.82.33,1.57.66,2.24,1a5.92,5.92,0,0,1,1.71,1.29,5.3,5.3,0,0,1,1.09,1.85,7.78,7.78,0,0,1,.4,2.69,7.52,7.52,0,0,1-.61,3,6.47,6.47,0,0,1-1.74,2.34,8.28,8.28,0,0,1-2.82,1.53,12.21,12.21,0,0,1-3.85.55q-1.08,0-1.92-.06a15.53,15.53,0,0,1-1.62-.21c-.51-.1-1-.23-1.51-.38s-1-.33-1.56-.55a13.41,13.41,0,0,1,.35-2c.18-.68.38-1.37.62-2.07a16.63,16.63,0,0,0,2.58.83,11.13,11.13,0,0,0,2.57.28,5.83,5.83,0,0,0,3.22-.77,2.58,2.58,0,0,0,1.17-2.32,2.83,2.83,0,0,0-.27-1.31,3.09,3.09,0,0,0-.72-.88,4.43,4.43,0,0,0-1-.6c-.37-.16-.75-.32-1.14-.47Z" transform="translate(1357.61 -71.13)"/><path class="cls-1" d="M-1288.65,125.58a22.64,22.64,0,0,0,6.82-6.93,26.18,26.18,0,0,0,3.32-13.5c0-8.33-2.83-15.05-8.44-20-5.49-4.43-13.45-6.69-23.66-6.69H-1346a11,11,0,0,0-8.18,3.48,11.69,11.69,0,0,0-3.38,8.43v89.19a1.45,1.45,0,0,0,1.45,1.46H-1312c11.53,0,20.63-2.73,27.09-8.18,6.3-5.67,9.49-13.64,9.49-23.7,0-6.24-1.31-11.39-3.91-15.32A26.28,26.28,0,0,0-1288.65,125.58Zm-15.8-10.91c-2,1.53-5.29,2.32-9.82,2.32h-21.34V98.8h21.06c6.32,0,9,1.09,10.1,2,1.89,1.45,2.81,3.71,2.81,6.93s-.92,5.46-2.81,6.91M-1335.61,137h21.91c5.45,0,9.32.87,11.48,2.58s3.38,4.78,3.38,9-1.08,7-3.34,8.64c-2.55,1.92-6.32,2.9-11.24,2.9h-22.19Z" transform="translate(1357.61 -71.13)"/><path class="cls-1" d="M-1256.53,75a38.19,38.19,0,0,0-4.38,4.29,39,39,0,0,0-3.94,5.34,29.71,29.71,0,0,0-2.86,6,19.4,19.4,0,0,0-1.08,6.29v84h19.86V71.13a7.69,7.69,0,0,0-3.38,1.05,24.4,24.4,0,0,0-4.22,2.86" transform="translate(1357.61 -71.13)"/><path class="cls-1" d="M-815.21,119q-8.1-10-22.34-10a27,27,0,0,0-12.9,3.15,28.66,28.66,0,0,0-2.74,1.74c-1,.7-2,1.49-2.94,2.35S-858.07,118-859,119a24.35,24.35,0,0,0-2.41,3l-.08-3.69V109h-19.87V221.49a7.73,7.73,0,0,0,3.38-1.06,24.13,24.13,0,0,0,4.22-2.87,38.62,38.62,0,0,0,4.39-4.32,39.19,39.19,0,0,0,3.93-5.37,30,30,0,0,0,2.86-6.06,19.37,19.37,0,0,0,1.09-6.32v-30.6a27.32,27.32,0,0,0,2.37,3.54q1.38,1.78,2.84,3.35a40.4,40.4,0,0,0,2.92,2.83,27.39,27.39,0,0,0,2.72,2.09,23.85,23.85,0,0,0,12.9,3.9h1.21a34.68,34.68,0,0,0,12-2.5,24.25,24.25,0,0,0,9.32-7.07q8-9.42,8-25.13,0-17-8-26.88m-17.62,40a13.18,13.18,0,0,1-10.87,5.06,12.62,12.62,0,0,1-11-5.59,21.45,21.45,0,0,1-3-5.84,30.48,30.48,0,0,1-1.09-8.56q0-8.1,4.38-13.35a13.9,13.9,0,0,1,10.88-5.14,12.65,12.65,0,0,1,10.86,5.5q4,5.22,4,14.39,0,8.46-4,13.53" transform="translate(1357.61 -71.13)"/><path class="cls-1" d="M-923,181a41.8,41.8,0,0,1-15.89-2.76,30.07,30.07,0,0,1-11.18-7.68,32.84,32.84,0,0,1-6.68-11.53A44,44,0,0,1-959,144.78a45.3,45.3,0,0,1,2.25-14.43,32.66,32.66,0,0,1,6.68-11.65A30.69,30.69,0,0,1-938.91,111,40.82,40.82,0,0,1-923,108.12,41.41,41.41,0,0,1-907,111a31.25,31.25,0,0,1,11.32,7.75A31.24,31.24,0,0,1-889,130.35a46.73,46.73,0,0,1,2.18,14.43A45.37,45.37,0,0,1-889,159.06a31.38,31.38,0,0,1-6.68,11.53A30.62,30.62,0,0,1-907,178.27,42.41,42.41,0,0,1-923,181Zm0-14.55q8.13,0,11.69-5.6t3.55-16.1q0-10.51-3.55-16.11T-923,123.08q-8,0-11.54,5.59t-3.56,16.11q0,10.51,3.56,16.1T-923,166.48Z" transform="translate(1357.61 -71.13)"/><path class="cls-1" d="M-1194.83,109.13v45.24a11.54,11.54,0,0,1-11.6,11.48h0a11.54,11.54,0,0,1-11.6-11.48V109.13h-20.32v51.29A20.72,20.72,0,0,0-1217.52,181h22.18a20.71,20.71,0,0,0,20.82-20.61V109.13Z" transform="translate(1357.61 -71.13)"/><path class="cls-1" d="M-1103.28,149.74v-18c0-13.12-12.43-23.34-23.44-23.34h-14c-11,0-20.2,10.55-24,23.34a48.36,48.36,0,0,0-1.69,13A44.31,44.31,0,0,0-1164,159a30.72,30.72,0,0,0,6.53,11.65,29.72,29.72,0,0,0,11.43,7.65,46,46,0,0,0,16.79,2.75,65.5,65.5,0,0,0,24-4.13c-.1-2.94,0-5.72,0-8.07V161a107.54,107.54,0,0,1-13,3.61,51.53,51.53,0,0,1-9.45.9q-8.43,0-13.6-3.72c-3.45-2.49-5.35-6.48-5.71-12h43.81Zm-44.29-13.64q.71-7,4.37-10.89t10.72-3.86q6.21,0,9.66,4.06t3.74,10.69Z" transform="translate(1357.61 -71.13)"/><path class="cls-1" d="M-1085.77,79.47a10.69,10.69,0,0,0-8,3.44,11.72,11.72,0,0,0-3.3,8.36v88.3a1.43,1.43,0,0,0,1.42,1.46h31.81c9.06,0,15.94-.69,20.41-2.07a38.35,38.35,0,0,0,13.38-7.12c4.93-4,8.95-9.76,12-17.27a71.63,71.63,0,0,0,3.92-24.32c0-16.73-3.72-29.6-11.06-38.27-7.39-8.3-18.72-12.51-33.42-12.51Zm49.07,50.78c0,11-1.9,18.8-5.69,23.11-3.9,4.62-10.24,7-18.69,7h-14.24V99.6h16.7c7.77,0,13,2.36,16.45,7.18,3.63,4.89,5.47,12.78,5.47,23.47" transform="translate(1357.61 -71.13)"/><path class="cls-1" d="M-962.26,108.41h-16.43c-15.78,0-28.58,13.62-28.58,30.41V181h20.41V144.5c0-9,6.84-16.27,15.29-16.27h9.31Z" transform="translate(1357.61 -71.13)"/></svg>