<svg id="Capa_1" data-name="Capa 1" xmlns="http://www.w3.org/2000/svg" viewBox="0 0 550.4 153.37"><defs><style>.cls-1{fill:#173853;}</style></defs><path class="cls-1" d="M263.94,201.09a10.07,10.07,0,0,1,1.92-.19,10.94,10.94,0,0,1,2,.19L276.93,216V201.09a13.67,13.67,0,0,1,2.25-.19,9.63,9.63,0,0,1,1.95.19V224.5a10.32,10.32,0,0,1-1.89.2,11.16,11.16,0,0,1-2-.2l-9.12-14.88V224.5a11.43,11.43,0,0,1-2.11.2,11,11,0,0,1-2.09-.2Z" transform="translate(-72.27 -71.52)"/><path class="cls-1" d="M291.06,201.09c.42-.06.82-.11,1.21-.13s.79,0,1.2,0l1.14,0c.39,0,.79.07,1.21.13v12.15c0,1.32.05,2.46.14,3.4a7.33,7.33,0,0,0,.59,2.34,2.87,2.87,0,0,0,1.24,1.37,5,5,0,0,0,4.12,0,3,3,0,0,0,1.22-1.37,7.34,7.34,0,0,0,.58-2.34,32.89,32.89,0,0,0,.15-3.4V201.09c.43-.06.85-.11,1.24-.13l1.14,0,1.18,0c.41,0,.81.07,1.23.13v13.16a22.33,22.33,0,0,1-.4,4.34,8.35,8.35,0,0,1-1.4,3.37,6.53,6.53,0,0,1-2.7,2.17,12.52,12.52,0,0,1-8.59,0,6.63,6.63,0,0,1-2.71-2.17,8.49,8.49,0,0,1-1.4-3.37,22.37,22.37,0,0,1-.39-4.34Z" transform="translate(-72.27 -71.52)"/><path class="cls-1" d="M318.77,201.09c1-.11,1.85-.2,2.69-.27s1.76-.12,2.78-.12a18.93,18.93,0,0,1,3.53.33,9.79,9.79,0,0,1,3.15,1.15,6.66,6.66,0,0,1,2.26,2.25A6.88,6.88,0,0,1,334,208a7.23,7.23,0,0,1-.33,2.29,6.6,6.6,0,0,1-.83,1.75,6.92,6.92,0,0,1-1.09,1.28,7.42,7.42,0,0,1-1.1.86l-.56.36,5.7,9.9-1.37.13c-.47,0-1,.07-1.46.07a15.16,15.16,0,0,1-2.44-.2l-6.12-10.87.78-.39,1.1-.59a6.63,6.63,0,0,0,1.26-.9,4.75,4.75,0,0,0,1-1.3,3.7,3.7,0,0,0,.43-1.81,3.65,3.65,0,0,0-1.18-3,4.61,4.61,0,0,0-3-1,7.58,7.58,0,0,0-1.31.1V224.5c-.39.05-.78.08-1.17.12s-.77,0-1.14,0-.76,0-1.17,0a11.39,11.39,0,0,1-1.27-.13Z" transform="translate(-72.27 -71.52)"/><path class="cls-1" d="M348.2,213.66a13,13,0,0,1-2-.93,5.59,5.59,0,0,1-1.5-1.2,5.12,5.12,0,0,1-1-1.68,8,8,0,0,1,.23-5.27,5.8,5.8,0,0,1,1.61-2.14,7,7,0,0,1,2.51-1.3,11.47,11.47,0,0,1,3.28-.44,15.27,15.27,0,0,1,3.11.3,22.7,22.7,0,0,1,3.05.84,11.65,11.65,0,0,1-1,3.71l-1-.39a6.69,6.69,0,0,0-1.07-.32,10.23,10.23,0,0,0-1.29-.21,13.21,13.21,0,0,0-1.63-.09,7.28,7.28,0,0,0-1.12.1,3.25,3.25,0,0,0-1,.36,1.92,1.92,0,0,0-.75.77,2.52,2.52,0,0,0-.3,1.31,2.35,2.35,0,0,0,.23,1.09,2.15,2.15,0,0,0,.62.75,3.65,3.65,0,0,0,.88.52c.32.15.65.28,1,.41l1.95.75c.82.33,1.57.66,2.25,1A6.21,6.21,0,0,1,357,212.9a5.46,5.46,0,0,1,1.09,1.85,8,8,0,0,1,.39,2.69,7.32,7.32,0,0,1-.61,3,6.47,6.47,0,0,1-1.74,2.34,8.32,8.32,0,0,1-2.81,1.53,12.32,12.32,0,0,1-3.86.55q-1.08,0-1.92-.06a15,15,0,0,1-1.61-.21c-.51-.1-1-.23-1.52-.38s-1-.33-1.56-.55a12.27,12.27,0,0,1,.36-2c.17-.68.38-1.37.62-2.07a16.2,16.2,0,0,0,2.57.83,11.13,11.13,0,0,0,2.57.28,5.83,5.83,0,0,0,3.22-.77,2.59,2.59,0,0,0,1.18-2.32,2.82,2.82,0,0,0-.28-1.31,2.93,2.93,0,0,0-.72-.88,4.83,4.83,0,0,0-1-.6c-.37-.16-.75-.32-1.14-.47Z" transform="translate(-72.27 -71.52)"/><path class="cls-1" d="M367.35,201.09h13.28a10.18,10.18,0,0,1,.2,2,10.41,10.41,0,0,1-.2,2H372.1v5.08h6.77a11,11,0,0,1,.2,2,10.79,10.79,0,0,1-.2,2.05H372.1v6.19h8.76a10.07,10.07,0,0,1,.19,2,10.42,10.42,0,0,1-.19,2.05H367.35Z" transform="translate(-72.27 -71.52)"/><path class="cls-1" d="M390.37,201.09c.95-.11,1.85-.2,2.68-.27s1.77-.12,2.79-.12a18.93,18.93,0,0,1,3.53.33,9.65,9.65,0,0,1,3.14,1.15,6.58,6.58,0,0,1,2.26,2.25,6.78,6.78,0,0,1,.87,3.6,7.23,7.23,0,0,1-.33,2.29,6.92,6.92,0,0,1-.83,1.75,7.33,7.33,0,0,1-1.09,1.28,7,7,0,0,1-1.11.86l-.55.36,5.7,9.9-1.37.13c-.48,0-1,.07-1.47.07a15.35,15.35,0,0,1-2.44-.2L396,213.6l.78-.39c.31-.16.68-.35,1.11-.59a6.9,6.9,0,0,0,1.25-.9,4.59,4.59,0,0,0,1-1.3,4.33,4.33,0,0,0-.75-4.82,4.62,4.62,0,0,0-3-1,7.46,7.46,0,0,0-1.3.1V224.5c-.39.05-.78.08-1.17.12s-.77,0-1.14,0-.76,0-1.17,0a11.16,11.16,0,0,1-1.27-.13Z" transform="translate(-72.27 -71.52)"/><path class="cls-1" d="M420.87,216.14l-7.29-15a19.31,19.31,0,0,1,2.74-.19,15.9,15.9,0,0,1,2.47.19l4.62,10.62L428,201.09a15.48,15.48,0,0,1,2.48-.19,17.28,17.28,0,0,1,2.5.19l-7.29,15v8.4c-.43.06-.85.1-1.24.13s-.78,0-1.17,0l-1.16,0c-.4,0-.8-.07-1.22-.13Z" transform="translate(-72.27 -71.52)"/><path class="cls-1" d="M141.23,126a22.79,22.79,0,0,0,6.83-6.93,26.25,26.25,0,0,0,3.31-13.5c0-8.33-2.83-15.05-8.44-20-5.49-4.43-13.45-6.69-23.66-6.69H83.83a11,11,0,0,0-8.18,3.48,11.69,11.69,0,0,0-3.38,8.43V180a1.45,1.45,0,0,0,1.45,1.46h44.15c11.53,0,20.63-2.73,27.09-8.18,6.3-5.67,9.49-13.64,9.49-23.7,0-6.24-1.31-11.39-3.91-15.32A26.28,26.28,0,0,0,141.23,126Zm-15.79-10.91c-2,1.53-5.3,2.32-9.83,2.32H94.27V99.19h21.06c6.32,0,9,1.09,10.11,2,1.88,1.45,2.8,3.71,2.8,6.93s-.92,5.46-2.8,6.91M94.27,137.42h21.91c5.45,0,9.33.87,11.48,2.58s3.38,4.78,3.38,9-1.08,7-3.34,8.64c-2.55,1.92-6.32,2.9-11.24,2.9H94.27Z" transform="translate(-72.27 -71.52)"/><path class="cls-1" d="M173.35,75.43A38.19,38.19,0,0,0,169,79.72,39.57,39.57,0,0,0,165,85.06a30.25,30.25,0,0,0-2.86,6,19.4,19.4,0,0,0-1.08,6.29v84H181V71.52a7.69,7.69,0,0,0-3.38,1,24.4,24.4,0,0,0-4.22,2.86" transform="translate(-72.27 -71.52)"/><path class="cls-1" d="M614.67,119.41q-8.1-10-22.34-10a27,27,0,0,0-12.9,3.15,28.66,28.66,0,0,0-2.74,1.74c-1,.7-2,1.49-2.94,2.35s-1.94,1.81-2.87,2.8a24.35,24.35,0,0,0-2.41,3l-.08-3.69v-9.32H548.52V221.88a7.83,7.83,0,0,0,3.38-1,24.79,24.79,0,0,0,4.22-2.88,39.35,39.35,0,0,0,4.39-4.31,39.91,39.91,0,0,0,3.93-5.38,30,30,0,0,0,2.86-6.06,19.37,19.37,0,0,0,1.09-6.32v-30.6a27.32,27.32,0,0,0,2.37,3.54q1.38,1.78,2.84,3.35a40.4,40.4,0,0,0,2.92,2.83,28.6,28.6,0,0,0,2.72,2.09,24,24,0,0,0,12.9,3.91h1.21a34.91,34.91,0,0,0,12-2.51,24.25,24.25,0,0,0,9.32-7.07q8-9.42,8-25.13,0-17-8-26.88m-17.62,40a13.18,13.18,0,0,1-10.87,5.06,12.6,12.6,0,0,1-11-5.59,21.21,21.21,0,0,1-3-5.84,30.48,30.48,0,0,1-1.09-8.56q0-8.1,4.38-13.35A13.9,13.9,0,0,1,586.27,126a12.65,12.65,0,0,1,10.86,5.5q4,5.22,4,14.39,0,8.46-4,13.53" transform="translate(-72.27 -71.52)"/><path class="cls-1" d="M506.86,181.42A41.84,41.84,0,0,1,491,178.66,30.07,30.07,0,0,1,479.79,171a32.84,32.84,0,0,1-6.68-11.53,44,44,0,0,1-2.25-14.28,45.24,45.24,0,0,1,2.25-14.42,32.62,32.62,0,0,1,6.68-11.66A30.69,30.69,0,0,1,491,111.34a40.86,40.86,0,0,1,15.89-2.83,41.41,41.41,0,0,1,16,2.83,30.42,30.42,0,0,1,18,19.41A46.67,46.67,0,0,1,543,145.17a45.37,45.37,0,0,1-2.18,14.28A31.38,31.38,0,0,1,534.15,171a30.62,30.62,0,0,1-11.32,7.68A42.41,42.41,0,0,1,506.86,181.42Zm0-14.55q8.13,0,11.69-5.6t3.55-16.1q0-10.51-3.55-16.11t-11.69-5.59q-8,0-11.54,5.59t-3.56,16.11q0,10.52,3.56,16.1T506.86,166.87Z" transform="translate(-72.27 -71.52)"/><path class="cls-1" d="M235.05,109.52v45.24a11.54,11.54,0,0,1-11.6,11.48h0a11.54,11.54,0,0,1-11.6-11.48V109.52H191.53v51.29a20.72,20.72,0,0,0,20.83,20.61h22.18a20.72,20.72,0,0,0,20.83-20.61V109.52Z" transform="translate(-72.27 -71.52)"/><path class="cls-1" d="M326.6,150.13v-18c0-13.12-12.43-23.34-23.44-23.34h-14c-11,0-20.2,10.55-24,23.34a47.58,47.58,0,0,0-1.69,13,44.1,44.1,0,0,0,2.37,14.22A30.85,30.85,0,0,0,272.38,171a29.8,29.8,0,0,0,11.43,7.65,46,46,0,0,0,16.79,2.75,65.5,65.5,0,0,0,23.95-4.13c-.1-2.94,0-5.72,0-8.07v-7.88a106.08,106.08,0,0,1-13,3.61,51.72,51.72,0,0,1-9.46.9q-8.43,0-13.6-3.72c-3.45-2.49-5.35-6.48-5.71-12H326.6Zm-44.29-13.64q.7-7,4.38-10.89t10.71-3.86q6.21,0,9.66,4.06t3.74,10.69Z" transform="translate(-72.27 -71.52)"/><path class="cls-1" d="M344.11,79.86a10.69,10.69,0,0,0-8,3.44,11.72,11.72,0,0,0-3.3,8.36V180a1.43,1.43,0,0,0,1.42,1.46h31.81c9.06,0,15.94-.69,20.41-2.07a38.35,38.35,0,0,0,13.38-7.12c4.93-4,9-9.76,12-17.27a71.59,71.59,0,0,0,3.92-24.32c0-16.73-3.72-29.6-11.06-38.27-7.39-8.3-18.72-12.51-33.42-12.51Zm49.08,50.78c0,11-1.91,18.8-5.7,23.11-3.9,4.62-10.24,7-18.69,7H354.56V100h16.7c7.77,0,13,2.36,16.45,7.18,3.63,4.89,5.48,12.78,5.48,23.47" transform="translate(-72.27 -71.52)"/><path class="cls-1" d="M467.62,108.8H451.19c-15.78,0-28.58,13.62-28.58,30.41v42.21H443V144.89c0-9,6.84-16.27,15.29-16.27h9.31Z" transform="translate(-72.27 -71.52)"/></svg>