<svg id="Capa_1" data-name="Capa 1" xmlns="http://www.w3.org/2000/svg" viewBox="0 0 77.56 77.56"><defs><style>.cls-1{fill:#455a77;}.cls-2{fill:#fff;}</style></defs><path class="cls-1" d="M266.83,380.58a38.78,38.78,0,1,0-38.78-38.78,38.78,38.78,0,0,0,38.78,38.78" transform="translate(-228.05 -303.02)"/><path class="cls-2" d="M269.83,348.83a8.8,8.8,0,1,1-8.78-8.26,8.55,8.55,0,0,1,8.78,8.26m2.53-8.88c.82,0,6.57-.05,9.11-1.37v2.64c-.06,1.06-4.12,1.92-9.11,1.92-1.19,0-2.34-.05-3.38-.14a10.16,10.16,0,0,0-5.73-3.41v-1c2.54,1.32,8.29,1.37,9.11,1.37m0-8.93c.82,0,6.57,0,9.11-1.37v2.64c-.06,1.07-4.12,1.93-9.11,1.93s-9.05-.86-9.1-1.93v-2.64c2.54,1.32,8.29,1.37,9.11,1.37m0-4.33c5.17,0,8.38.9,8.92,1.47-.54.56-3.75,1.46-8.92,1.46s-8.37-.9-8.91-1.46c.54-.57,3.74-1.47,8.91-1.47m9.11,9.5v.1c-.06,1.06-4.12,1.92-9.11,1.92s-9.05-.86-9.1-1.92V334c2.17,1.29,6.79,1.46,9.11,1.46s6.94-.17,9.11-1.46Zm0,8.92v.1c-.06,1.06-4.12,1.92-9.11,1.92l-1.41,0a8.9,8.9,0,0,0-1.07-2.82c.94,0,1.81.06,2.48.06,2.32,0,6.94-.17,9.11-1.46Zm0,3.64v.1c-.06,1.06-4.12,1.92-9.11,1.92l-1.45,0a9.33,9.33,0,0,0,.21-1.92c0-.17,0-.33,0-.5l1.26,0c2.32,0,6.94-.18,9.11-1.46Zm-20.42-9.39c-5.55,0-10.07,4.25-10.07,9.47s4.52,9.47,10.07,9.47a10.05,10.05,0,0,0,9.5-6.35c.68,0,1.3,0,1.81,0,3.09,0,10.29-.31,10.29-3.16V345a2.11,2.11,0,0,0,0-.26,1.94,1.94,0,0,0,0-.24v-3.13a2.45,2.45,0,0,0,0-.27,1.94,1.94,0,0,0,0-.24v-3.49a2.11,2.11,0,0,0,0-.26,1.16,1.16,0,0,0-.08-.42,1.76,1.76,0,0,0,.06-.4v-3.85a2.11,2.11,0,0,0,0-.26,2,2,0,0,0,0-.25v-3.48a2.28,2.28,0,0,0,0-.26,1.27,1.27,0,0,0-.08-.44A1.19,1.19,0,0,0,282,327c-2.1-1.68-8.79-1.74-9.68-1.74s-7.58.06-9.68,1.74a1.17,1.17,0,0,0-.54.69,1,1,0,0,0-.09.44,1.15,1.15,0,0,0,0,.26v3.48a1,1,0,0,0,0,.25,1.09,1.09,0,0,0,0,.26v3.85a1.75,1.75,0,0,0,.05.4,1.16,1.16,0,0,0-.08.42,1.09,1.09,0,0,0,0,.26v2.07a8.77,8.77,0,0,0-1-.05" transform="translate(-228.05 -303.02)"/><path class="cls-2" d="M267,348.83a5.93,5.93,0,1,1-5.92-5.57,5.76,5.76,0,0,1,5.92,5.57m-12.71,0a6.8,6.8,0,1,0,6.79-6.38,6.6,6.6,0,0,0-6.79,6.38" transform="translate(-228.05 -303.02)"/><path class="cls-2" d="M261.08,345.78v-.57h.23v.51a.41.41,0,0,0,.39.4,2.6,2.6,0,0,1,.85.22l-.11.27-.3-.11a3,3,0,0,0-.85-.13,1.36,1.36,0,0,0-.94.31.93.93,0,0,0-.3.67.84.84,0,0,0,.09.4,1,1,0,0,0,.27.32,3.47,3.47,0,0,0,1,.51h0a3.55,3.55,0,0,1,.88.47,1.36,1.36,0,0,1,.45.57,1.5,1.5,0,0,1,.08.5,1.27,1.27,0,0,1-.35.88h0a1.73,1.73,0,0,1-.88.49.4.4,0,0,0-.33.39v.6H261v-.54a.42.42,0,0,0-.39-.41,2.91,2.91,0,0,1-.59-.1,2.28,2.28,0,0,1-.49-.19l.1-.28a3,3,0,0,0,1.32.31,1.47,1.47,0,0,0,1-.3,1,1,0,0,0,.39-.79,1.16,1.16,0,0,0-.08-.42,1.06,1.06,0,0,0-.26-.35,2.58,2.58,0,0,0-.89-.5,4.18,4.18,0,0,1-.92-.44,1.41,1.41,0,0,1-.5-.54,1.16,1.16,0,0,1-.09-.47,1.21,1.21,0,0,1,.35-.86,1.61,1.61,0,0,1,.81-.42.42.42,0,0,0,.33-.4m-.86-1v.69a2.36,2.36,0,0,0-.91.56,1.93,1.93,0,0,0-.58,1.41,1.8,1.8,0,0,0,.17.8,2.13,2.13,0,0,0,.78.87,5.39,5.39,0,0,0,1.1.53,1.71,1.71,0,0,1,.6.32.41.41,0,0,1,.08.1.77.77,0,0,1,0,.1.19.19,0,0,1-.08.17.7.7,0,0,1-.42.11,2,2,0,0,1-1.06-.29l-.25-.16a.44.44,0,0,0-.37-.05.4.4,0,0,0-.27.25l-.4,1.05a.39.39,0,0,0,.15.47l.15.1a3,3,0,0,0,.87.38l.36.08v.6a.41.41,0,0,0,.43.4h1.1a.41.41,0,0,0,.43-.4v-.71a2.53,2.53,0,0,0,1-.64,2.12,2.12,0,0,0,.56-1.42,2,2,0,0,0-.14-.78,2.12,2.12,0,0,0-.7-.92,4.32,4.32,0,0,0-1.08-.58l-.05,0a3.39,3.39,0,0,1-.73-.35l-.05-.06a.22.22,0,0,1,0-.06.14.14,0,0,1,0-.09.56.56,0,0,1,.34-.08,1.75,1.75,0,0,1,.57.09,2.1,2.1,0,0,1,.35.14l.24.13a.5.5,0,0,0,.36,0,.4.4,0,0,0,.25-.24l.42-1a.4.4,0,0,0-.18-.49l-.18-.1a3.36,3.36,0,0,0-.95-.34v-.57a.41.41,0,0,0-.43-.4h-1.09a.41.41,0,0,0-.43.4" transform="translate(-228.05 -303.02)"/></svg>