<svg id="Capa_1" data-name="Capa 1" xmlns="http://www.w3.org/2000/svg" viewBox="0 0 76.61 54.37"><defs><style>.cls-1{fill:#fff;}</style></defs><path class="cls-1" d="M428.74,560a5,5,0,0,1,1.25-3.21.71.71,0,0,0,0-1c-2.3-3-4.59-6-6.87-9.06a9.12,9.12,0,0,0-2.17-1.75c-2-1.41-3.93-2.77-5.9-4.16a1.45,1.45,0,0,1-.56-1.58,26.88,26.88,0,0,1,2.17-6.54,32.41,32.41,0,0,1,4.27-6.86,21.49,21.49,0,0,1,5.66-5.05c1.08-.66,1.56-.56,2.58.16,1.39,1,2.83,1.9,4.25,2.85.74.5,1.5,1,2.22,1.51a3.85,3.85,0,0,0,2.17.48c3,.22,6,.36,9,.61a9.56,9.56,0,0,1,4.67,1.82c1.24.87,1.25.92,2.5,0a11.08,11.08,0,0,1,6.13-2c3-.14,6-.38,9-.58a1.28,1.28,0,0,0,.61-.22c1.17-.76,2.37-1.46,3.48-2.3.59-.44,1.28-.68,1.87-1.13a17.48,17.48,0,0,1,2-1.29c.77-.44,1.45,0,2.05.4a25.3,25.3,0,0,1,7.89,8.38,32.13,32.13,0,0,1,3.84,9c.06.25.11.5.16.76a1.7,1.7,0,0,1-.78,1.94c-2.41,1.58-4.81,3.17-7.16,4.83a44,44,0,0,0-3.93,3.55c-1.2,1.08-2.37,2.18-3.58,3.24-.33.3-.33.48,0,.82a4.56,4.56,0,0,1-2.15,7.56c-.44.13-.58.33-.55.75a4.51,4.51,0,0,1-4.16,4.67.88.88,0,0,0-.92.79,4.51,4.51,0,0,1-4.63,3.45c-.43,0-.59.1-.7.49a4.58,4.58,0,0,1-7.62,2c-.14-.14-.28-.28-.41-.43-.24-.3-.4-.31-.68,0a4.6,4.6,0,0,1-5.38,1.4,4.09,4.09,0,0,1-2.14-1.81c-.22-.38-.45-.49-.86-.31a4.57,4.57,0,0,1-6-2.86c-.1-.35-.27-.44-.64-.41a4.58,4.58,0,0,1-4.75-3.13.08.08,0,0,1,0-.05c.06-1-.59-1.15-1.38-1.25a4,4,0,0,1-2.81-1.66A4.12,4.12,0,0,1,428.74,560Zm22.83,3c.29,0,.53,0,.76,0a4.48,4.48,0,0,1,3.68,6.1,1.63,1.63,0,0,0,.52,2.17l0,.05a1.84,1.84,0,1,0,2.7-2.5l-1.37-1.48a1.4,1.4,0,0,1-.06-2,1.34,1.34,0,0,1,2,.06c.7.7,1.39,1.41,2.1,2.11a1.73,1.73,0,0,0,2.59.05,1.79,1.79,0,0,0,.1-2.52c-.37-.42-.8-.77-1.21-1.16-1.66-1.59-3.32-3.19-5-4.77a1.51,1.51,0,0,1-.19-2,1.37,1.37,0,0,1,2.06,0c1.28,1.22,2.54,2.46,3.82,3.68,1,.92,1.9,1.87,2.92,2.72a1.75,1.75,0,0,0,2.56-.19,1.91,1.91,0,0,0-.17-2.54c-1.56-1.53-3.16-3-4.73-4.54-1.75-1.68-3.49-3.36-5.22-5.06a1.28,1.28,0,0,1-.07-1.87,1.34,1.34,0,0,1,2-.08c1,.87,1.9,1.75,2.84,2.63,2.15,2,4.28,4.09,6.43,6.12a2,2,0,0,0,1.11.66,1.89,1.89,0,0,0,2-.92,1.83,1.83,0,0,0-.39-2.23c-1.41-1.4-2.84-2.78-4.27-4.16l-6.83-6.65c-1.13-1.09-2.32-2.12-3.39-3.27a5,5,0,0,0-6.08-1.14c-1,.55-2,1.26-2.94,1.91a40.58,40.58,0,0,1-3.53,2.33,4.6,4.6,0,0,1-6.64-3.16,4.92,4.92,0,0,1,2.21-4.93l7.8-5.27c.55-.37.53-.38,0-.78-1.65-1.17-3.56-1.27-5.47-1.39-2.37-.16-4.75-.29-7.13-.46a2.62,2.62,0,0,0-1.94.52,22.13,22.13,0,0,0-2.27,1.92,30.26,30.26,0,0,0-7.63,13.42.84.84,0,0,0,.15.83c2.12,2.78,4.26,5.54,6.33,8.36a1.14,1.14,0,0,0,1.52.48,4.44,4.44,0,0,1,5.21,2.1.93.93,0,0,0,1.2.57,4.36,4.36,0,0,1,4.92,2.57c.26.62.56.69,1.14.65a4.23,4.23,0,0,1,4.16,2.15C450.29,562.87,450.67,563.35,451.57,563Zm17.34-34.49c-3,.2-6,.42-9,.58a8.44,8.44,0,0,0-4.43,1.53c-2.7,1.86-5.43,3.67-8.15,5.5-1.35.91-2.71,1.8-4.05,2.73a1.9,1.9,0,0,0-.79,2.13,1.77,1.77,0,0,0,2.79,1c1.87-1.24,3.71-2.52,5.59-3.75a7.77,7.77,0,0,1,8.93.37,34.12,34.12,0,0,1,2.55,2.41c1.47,1.44,3,2.85,4.46,4.29,2,1.92,4,3.84,5.93,5.78a.48.48,0,0,0,.8,0c.5-.5,1-1,1.55-1.47q2.44-2.28,4.9-4.53a.76.76,0,0,0,.23-.85,29.82,29.82,0,0,0-3.12-7.38,24.75,24.75,0,0,0-6.05-7.22C470.4,529.06,469.84,528.38,468.91,528.46ZM417.35,538.7c-.08.34.18.47.39.62,1.5,1.07,3,2.12,4.5,3.21.45.34.58.17.72-.27a30.68,30.68,0,0,1,9.69-14.83c.37-.31.4-.51,0-.8-1.55-1-3.08-2-4.61-3.09a.51.51,0,0,0-.69,0,21.9,21.9,0,0,0-2.51,2.09A28.83,28.83,0,0,0,418,536.55C417.79,537.26,417.58,538,417.35,538.7Zm70.73.29c0-.11-.06-.29-.11-.46a31.32,31.32,0,0,0-3-7,25,25,0,0,0-6.62-7.56.84.84,0,0,0-1.11-.06c-1.44,1-2.9,1.87-4.35,2.79-.48.31-.48.43,0,.78a24.55,24.55,0,0,1,4.51,4.71,32.49,32.49,0,0,1,5.15,10.14c.16.53.35.55.78.25,1.5-1,3-2,4.53-3.07C488,539.36,488.1,539.27,488.08,539Zm-46.31,29A1.78,1.78,0,0,0,443,569.7a1.75,1.75,0,0,0,2-.59c.85-1.22,1.67-2.46,2.49-3.7a1.55,1.55,0,0,0,.22-1.37,1.8,1.8,0,0,0-1.39-1.33,1.75,1.75,0,0,0-1.9.7c-.81,1.18-1.6,2.37-2.39,3.56A1.53,1.53,0,0,0,441.77,567.94Zm-5.37-3.61a1.84,1.84,0,0,0,.46,1.26,1.8,1.8,0,0,0,2.92-.22c.71-1,1.34-2,2-3a2.45,2.45,0,0,0,.42-1,1.85,1.85,0,0,0-1.08-1.93,1.75,1.75,0,0,0-2.18.57c-.8,1.11-1.53,2.27-2.29,3.41A1.38,1.38,0,0,0,436.4,564.33Zm17.15,3.28a1.81,1.81,0,0,0-1.17-1.76,1.87,1.87,0,0,0-2.09.6c-.56.8-1.09,1.62-1.64,2.42a1.86,1.86,0,0,0,.37,2.77,1.82,1.82,0,0,0,2.63-.65c.54-.78,1.06-1.58,1.59-2.37A1.6,1.6,0,0,0,453.55,567.61Zm-22-7.59a1.72,1.72,0,0,0,1.21,1.77,1.8,1.8,0,0,0,2-.56,21.72,21.72,0,0,0,1.31-2,1.82,1.82,0,0,0-.51-2.35,1.84,1.84,0,0,0-2.35.21,10.83,10.83,0,0,0-1.45,2.09A1.24,1.24,0,0,0,431.53,560Z" transform="translate(-414.41 -520.35)"/></svg>